<svg width="374" height="52" viewBox="0 0 374 52" fill="none" xmlns="http://www.w3.org/2000/svg">
<g filter="url(#filter0_d)">
<path d="M39.5757 13.07C39.5757 15.8933 38.9157 18.515 37.5957 20.935C36.3123 23.3183 34.6073 25.6467 32.4807 27.92C30.3907 30.1567 28.0257 32.43 25.3857 34.74C22.7457 37.0133 20.0873 39.4517 17.4107 42.055C16.7507 42.055 16.5857 41.4867 16.9157 40.35C17.6123 38.2233 18.1807 35.9683 18.6207 33.585C19.0607 31.2017 19.3357 28.8367 19.4457 26.49C19.5557 24.1433 19.4823 21.9067 19.2257 19.78C18.969 17.6533 18.4923 15.7833 17.7957 14.17C17.1357 12.52 16.219 11.2183 15.0457 10.265C13.8723 9.275 12.424 8.78 10.7007 8.78C8.20733 8.78 6.154 9.77 4.54066 11.75C2.92733 13.6933 1.60733 16.6817 0.580664 20.715C0.507331 20.8617 0.397331 20.9167 0.250664 20.88C0.103997 20.8433 0.0306641 20.7517 0.0306641 20.605C0.507331 18.5517 1.094 16.6633 1.79066 14.94C2.524 13.2167 3.38566 11.75 4.37566 10.54C5.40233 9.29333 6.594 8.32167 7.95066 7.625C9.30733 6.92833 10.8657 6.58 12.6257 6.58C14.3123 6.58 15.7607 7.00166 16.9707 7.845C18.1807 8.68833 19.189 9.84333 19.9957 11.31C20.8023 12.7767 21.389 14.5183 21.7557 16.535C22.1223 18.515 22.3057 20.6783 22.3057 23.025C22.3057 25.335 22.104 27.7733 21.7007 30.34C21.334 32.87 20.8023 35.4183 20.1057 37.985C22.6723 35.8583 24.9823 33.86 27.0357 31.99C29.089 30.12 30.8123 28.2867 32.2057 26.49C33.599 24.6567 34.6623 22.805 35.3957 20.935C36.1657 19.065 36.5507 17.0667 36.5507 14.94C36.5507 13.2167 36.184 11.8233 35.4507 10.76C34.7173 9.69667 33.819 9.165 32.7557 9.165C32.0957 9.165 31.564 9.33 31.1607 9.66C30.794 9.95333 30.464 10.43 30.1707 11.09C29.804 11.2367 29.6207 11.1083 29.6207 10.705C29.804 10.1917 30.0607 9.69667 30.3907 9.22C30.7573 8.70667 31.124 8.26667 31.4907 7.9C31.894 7.49667 32.2973 7.185 32.7007 6.965C33.104 6.70833 33.4707 6.58 33.8007 6.58C34.6807 6.58 35.469 6.76333 36.1657 7.13C36.899 7.49667 37.504 7.99167 37.9807 8.615C38.494 9.20166 38.879 9.89833 39.1357 10.705C39.429 11.475 39.5757 12.2633 39.5757 13.07ZM44.2141 27.92C45.4975 27.92 46.4508 28.305 47.0741 29.075C47.6975 29.845 48.0091 30.7433 48.0091 31.77C48.0091 33.2 47.7158 34.5383 47.1291 35.785C46.5791 36.995 45.8825 38.0767 45.0391 39.03C44.2325 39.9467 43.3525 40.68 42.3991 41.23C41.4458 41.7433 40.5841 42 39.8141 42C38.5675 42 37.6141 41.6333 36.9541 40.9C36.3308 40.13 36.0191 39.1583 36.0191 37.985C36.0191 36.9217 36.2391 35.8033 36.6791 34.63C37.1558 33.4567 37.7608 32.375 38.4941 31.385C39.2641 30.395 40.1441 29.57 41.1341 28.91C42.1241 28.25 43.1508 27.92 44.2141 27.92ZM41.1891 40.295C42.3258 40.295 43.2791 39.7083 44.0491 38.535C44.8558 37.325 45.2591 35.675 45.2591 33.585C45.2591 32.485 45.0391 31.5683 44.5991 30.835C44.1591 30.1017 43.5175 29.735 42.6741 29.735C41.5008 29.735 40.5475 30.3033 39.8141 31.44C39.0808 32.5767 38.7141 34.245 38.7141 36.445C38.7141 37.7283 38.9341 38.7 39.3741 39.36C39.8508 39.9833 40.4558 40.295 41.1891 40.295ZM59.4388 32.87C59.2188 32.9433 59.1088 32.8517 59.1088 32.595C59.3655 31.825 59.3105 31.1467 58.9438 30.56C58.6138 29.9733 57.9905 29.68 57.0738 29.68C55.9005 29.68 54.9472 30.4133 54.2138 31.88C53.5172 33.3467 53.1688 35.2533 53.1688 37.6C53.1688 39.3233 53.8472 40.185 55.2038 40.185C55.8272 40.185 56.5055 39.965 57.2388 39.525C58.0088 39.0483 58.7055 38.4433 59.3288 37.71C59.4755 37.6367 59.6038 37.655 59.7138 37.765C59.8238 37.875 59.8422 38.0033 59.7688 38.15C58.8522 39.3233 57.8255 40.2583 56.6888 40.955C55.5522 41.6517 54.3422 42 53.0588 42C52.2522 42 51.5738 41.725 51.0238 41.175C50.4738 40.5883 50.1988 39.7817 50.1988 38.755C50.1988 37.4717 50.4555 36.1883 50.9688 34.905C51.5188 33.585 52.2155 32.4117 53.0588 31.385C53.9022 30.3583 54.8188 29.5333 55.8088 28.91C56.7988 28.25 57.7705 27.92 58.7238 27.92C59.5672 27.92 60.2272 28.1583 60.7038 28.635C61.1805 29.1117 61.4188 29.6433 61.4188 30.23C61.4188 30.45 61.3455 30.6883 61.1988 30.945C61.0888 31.2017 60.9238 31.4583 60.7038 31.715C60.5205 31.9717 60.3005 32.21 60.0438 32.43C59.8238 32.65 59.6222 32.7967 59.4388 32.87ZM74.1522 30.67C74.1522 32.76 71.3839 34.19 65.8472 34.96C65.8105 35.3267 65.7739 35.6933 65.7372 36.06C65.7372 36.4267 65.7372 36.8117 65.7372 37.215C65.7372 38.1683 65.9572 38.9017 66.3972 39.415C66.8372 39.9283 67.5339 40.185 68.4872 40.185C69.1839 40.185 69.8989 39.9833 70.6322 39.58C71.3655 39.1767 71.9522 38.6633 72.3922 38.04C72.5389 37.9667 72.6489 38.0033 72.7222 38.15C72.7955 38.26 72.8139 38.3883 72.7772 38.535C72.0439 39.4883 71.1089 40.3133 69.9722 41.01C68.8722 41.67 67.6805 42 66.3972 42C65.1139 42 64.1789 41.6883 63.5922 41.065C63.0422 40.405 62.7672 39.4883 62.7672 38.315C62.7672 37.1783 63.0055 36.005 63.4822 34.795C63.9589 33.5483 64.5639 32.4117 65.2972 31.385C66.0672 30.3583 66.9289 29.5333 67.8822 28.91C68.8722 28.25 69.8622 27.92 70.8522 27.92C71.8422 27.92 72.6305 28.2133 73.2172 28.8C73.8405 29.35 74.1522 29.9733 74.1522 30.67ZM69.3672 29.35C68.5239 29.35 67.7905 29.7533 67.1672 30.56C66.5805 31.33 66.1772 32.54 65.9572 34.19C67.7172 34.0067 69.0189 33.6767 69.8622 33.2C70.7055 32.6867 71.1272 32.0633 71.1272 31.33C71.1272 30.78 70.9622 30.3217 70.6322 29.955C70.3022 29.5517 69.8805 29.35 69.3672 29.35ZM69.8072 20.275C69.9905 20.0917 70.2105 20.11 70.4672 20.33C70.9072 20.9533 71.4389 21.5033 72.0622 21.98C72.7222 22.4567 73.4005 22.86 74.0972 23.19C74.2805 23.3733 74.1705 23.5933 73.7672 23.85C73.4005 24.1067 72.9789 24.1983 72.5022 24.125C71.8789 23.8683 71.2922 23.6117 70.7422 23.355C70.2289 23.0983 69.7155 22.805 69.2022 22.475C68.3222 23.0983 67.2772 23.7217 66.0672 24.345C65.9205 24.345 65.8105 24.29 65.7372 24.18C65.7005 24.07 65.7189 23.9417 65.7922 23.795C66.4155 23.4283 67.0939 22.9333 67.8272 22.31C68.5605 21.6867 69.2205 21.0083 69.8072 20.275ZM95.4754 30.67C95.4754 32.76 92.7071 34.19 87.1704 34.96C87.1338 35.3267 87.0971 35.6933 87.0604 36.06C87.0604 36.4267 87.0604 36.8117 87.0604 37.215C87.0604 38.1683 87.2804 38.9017 87.7204 39.415C88.1604 39.9283 88.8571 40.185 89.8104 40.185C90.5071 40.185 91.2221 39.9833 91.9554 39.58C92.6888 39.1767 93.2754 38.6633 93.7154 38.04C93.8621 37.9667 93.9721 38.0033 94.0454 38.15C94.1188 38.26 94.1371 38.3883 94.1004 38.535C93.3671 39.4883 92.4321 40.3133 91.2954 41.01C90.1954 41.67 89.0038 42 87.7204 42C86.4371 42 85.5021 41.6883 84.9154 41.065C84.3654 40.405 84.0904 39.4883 84.0904 38.315C84.0904 37.1783 84.3288 36.005 84.8054 34.795C85.2821 33.5483 85.8871 32.4117 86.6204 31.385C87.3904 30.3583 88.2521 29.5333 89.2054 28.91C90.1954 28.25 91.1854 27.92 92.1754 27.92C93.1654 27.92 93.9538 28.2133 94.5404 28.8C95.1638 29.35 95.4754 29.9733 95.4754 30.67ZM90.6904 29.35C89.8471 29.35 89.1138 29.7533 88.4904 30.56C87.9038 31.33 87.5004 32.54 87.2804 34.19C89.0404 34.0067 90.3421 33.6767 91.1854 33.2C92.0288 32.6867 92.4504 32.0633 92.4504 31.33C92.4504 30.78 92.2854 30.3217 91.9554 29.955C91.6254 29.5517 91.2038 29.35 90.6904 29.35ZM104.017 27.92C104.824 27.92 105.466 28.03 105.942 28.25C106.456 28.47 106.712 28.745 106.712 29.075C106.712 29.4783 106.602 29.9367 106.382 30.45C106.199 30.9633 106.016 31.385 105.832 31.715C105.759 31.7883 105.667 31.8067 105.557 31.77C105.447 31.6967 105.392 31.5867 105.392 31.44C105.502 31.1833 105.557 30.8167 105.557 30.34C105.557 29.8267 105.411 29.405 105.117 29.075C104.861 28.745 104.494 28.58 104.017 28.58C103.394 28.58 102.881 28.7817 102.477 29.185C102.111 29.5517 101.927 30.0833 101.927 30.78C101.927 31.3667 102.074 31.935 102.367 32.485C102.697 32.9983 103.046 33.53 103.412 34.08C103.816 34.5933 104.182 35.1617 104.512 35.785C104.842 36.3717 105.007 37.05 105.007 37.82C105.007 39.14 104.476 40.1667 103.412 40.9C102.349 41.6333 100.956 42 99.2322 42C97.9855 42 96.9955 41.7983 96.2622 41.395C95.5655 40.9917 95.2172 40.5517 95.2172 40.075C95.2172 39.9283 95.2722 39.7267 95.3822 39.47C95.4922 39.2133 95.6389 38.9383 95.8222 38.645C96.0055 38.3517 96.2072 38.0583 96.4272 37.765C96.6472 37.4717 96.8855 37.2333 97.1422 37.05C97.2522 36.9767 97.3439 36.995 97.4172 37.105C97.5272 37.215 97.5455 37.325 97.4722 37.435C97.2522 37.655 97.0872 37.8933 96.9772 38.15C96.8672 38.37 96.8122 38.6817 96.8122 39.085C96.8122 39.745 97.0322 40.295 97.4722 40.735C97.9122 41.1383 98.4805 41.34 99.1772 41.34C100.131 41.34 100.864 41.0833 101.377 40.57C101.927 40.02 102.202 39.36 102.202 38.59C102.202 37.8933 102.037 37.2517 101.707 36.665C101.414 36.0417 101.084 35.455 100.717 34.905C100.351 34.3183 100.002 33.7317 99.6722 33.145C99.3789 32.5583 99.2322 31.935 99.2322 31.275C99.2322 30.3217 99.6355 29.5333 100.442 28.91C101.249 28.25 102.441 27.92 104.017 27.92ZM117.715 32.87C117.495 32.9433 117.385 32.8517 117.385 32.595C117.642 31.825 117.587 31.1467 117.22 30.56C116.89 29.9733 116.267 29.68 115.35 29.68C114.177 29.68 113.224 30.4133 112.49 31.88C111.794 33.3467 111.445 35.2533 111.445 37.6C111.445 39.3233 112.124 40.185 113.48 40.185C114.104 40.185 114.782 39.965 115.515 39.525C116.285 39.0483 116.982 38.4433 117.605 37.71C117.752 37.6367 117.88 37.655 117.99 37.765C118.1 37.875 118.119 38.0033 118.045 38.15C117.129 39.3233 116.102 40.2583 114.965 40.955C113.829 41.6517 112.619 42 111.335 42C110.529 42 109.85 41.725 109.3 41.175C108.75 40.5883 108.475 39.7817 108.475 38.755C108.475 37.4717 108.732 36.1883 109.245 34.905C109.795 33.585 110.492 32.4117 111.335 31.385C112.179 30.3583 113.095 29.5333 114.085 28.91C115.075 28.25 116.047 27.92 117 27.92C117.844 27.92 118.504 28.1583 118.98 28.635C119.457 29.1117 119.695 29.6433 119.695 30.23C119.695 30.45 119.622 30.6883 119.475 30.945C119.365 31.2017 119.2 31.4583 118.98 31.715C118.797 31.9717 118.577 32.21 118.32 32.43C118.1 32.65 117.899 32.7967 117.715 32.87ZM126.874 29.515C126.874 30.065 126.819 30.6883 126.709 31.385C126.599 32.0817 126.452 32.7967 126.269 33.53C127.002 31.77 127.809 30.395 128.689 29.405C129.569 28.415 130.522 27.92 131.549 27.92C132.099 27.92 132.52 28.0483 132.814 28.305C133.107 28.5617 133.254 28.8917 133.254 29.295C133.254 29.6617 133.107 30.1383 132.814 30.725C132.557 31.3117 132.337 31.715 132.154 31.935C132.08 31.9717 132.007 31.9717 131.934 31.935C131.86 31.8617 131.824 31.7883 131.824 31.715C131.824 31.4583 131.714 31.2383 131.494 31.055C131.31 30.8717 131.017 30.78 130.614 30.78C129.33 30.78 128.157 31.66 127.094 33.42C126.067 35.1433 125.114 37.6367 124.234 40.9C124.197 41.0833 124.069 41.2483 123.849 41.395C123.629 41.505 123.372 41.615 123.079 41.725C122.822 41.7983 122.547 41.8717 122.254 41.945C121.96 41.9817 121.704 42 121.484 42C121.08 42 120.97 41.78 121.154 41.34C121.484 40.57 121.795 39.745 122.089 38.865C122.419 37.9483 122.712 37.0317 122.969 36.115C123.225 35.1983 123.445 34.3183 123.629 33.475C123.812 32.595 123.959 31.7883 124.069 31.055C124.142 30.505 124.16 30.0833 124.124 29.79C124.124 29.4967 123.977 29.35 123.684 29.35C123.317 29.35 122.932 29.515 122.529 29.845C122.162 30.1383 121.814 30.5233 121.484 31C121.337 31.11 121.19 31.1283 121.044 31.055C120.934 30.945 120.915 30.8167 120.989 30.67C121.209 30.3767 121.465 30.0833 121.759 29.79C122.089 29.46 122.437 29.1667 122.804 28.91C123.207 28.6167 123.61 28.3783 124.014 28.195C124.454 28.0117 124.894 27.92 125.334 27.92C125.92 27.92 126.324 28.0667 126.544 28.36C126.764 28.6167 126.874 29.0017 126.874 29.515ZM144.084 30.67C144.084 32.76 141.315 34.19 135.779 34.96C135.742 35.3267 135.705 35.6933 135.669 36.06C135.669 36.4267 135.669 36.8117 135.669 37.215C135.669 38.1683 135.889 38.9017 136.329 39.415C136.769 39.9283 137.465 40.185 138.419 40.185C139.115 40.185 139.83 39.9833 140.564 39.58C141.297 39.1767 141.884 38.6633 142.324 38.04C142.47 37.9667 142.58 38.0033 142.654 38.15C142.727 38.26 142.745 38.3883 142.709 38.535C141.975 39.4883 141.04 40.3133 139.904 41.01C138.804 41.67 137.612 42 136.329 42C135.045 42 134.11 41.6883 133.524 41.065C132.974 40.405 132.699 39.4883 132.699 38.315C132.699 37.1783 132.937 36.005 133.414 34.795C133.89 33.5483 134.495 32.4117 135.229 31.385C135.999 30.3583 136.86 29.5333 137.814 28.91C138.804 28.25 139.794 27.92 140.784 27.92C141.774 27.92 142.562 28.2133 143.149 28.8C143.772 29.35 144.084 29.9733 144.084 30.67ZM139.299 29.35C138.455 29.35 137.722 29.7533 137.099 30.56C136.512 31.33 136.109 32.54 135.889 34.19C137.649 34.0067 138.95 33.6767 139.794 33.2C140.637 32.6867 141.059 32.0633 141.059 31.33C141.059 30.78 140.894 30.3217 140.564 29.955C140.234 29.5517 139.812 29.35 139.299 29.35ZM150.646 41.23C150.132 41.4133 149.527 41.5967 148.831 41.78C148.171 41.9267 147.511 42 146.851 42C146.411 42 146.282 41.7617 146.466 41.285C147.089 39.745 147.621 38.0767 148.061 36.28C148.501 34.4467 148.812 32.815 148.996 31.385C149.106 30.1017 148.904 29.46 148.391 29.46C147.841 29.46 147.162 29.8817 146.356 30.725C146.172 30.7983 146.026 30.78 145.916 30.67C145.806 30.56 145.787 30.4317 145.861 30.285C146.521 29.625 147.254 29.075 148.061 28.635C148.904 28.1583 149.747 27.92 150.591 27.92C151.141 27.92 151.507 28.085 151.691 28.415C151.874 28.745 151.966 29.1667 151.966 29.68C151.966 30.3767 151.892 31.2017 151.746 32.155C151.599 33.1083 151.397 34.1167 151.141 35.18C150.921 36.2067 150.664 37.2333 150.371 38.26C150.114 39.25 149.857 40.1483 149.601 40.955C150.627 40.6983 151.636 40.2217 152.626 39.525C153.652 38.8283 154.569 38.0217 155.376 37.105C156.182 36.1883 156.824 35.1983 157.301 34.135C157.814 33.035 158.071 31.935 158.071 30.835C158.071 29.8817 157.777 29.405 157.191 29.405C156.861 29.405 156.586 29.4783 156.366 29.625C156.182 29.735 155.981 29.955 155.761 30.285C155.651 30.3583 155.559 30.34 155.486 30.23C155.412 30.12 155.394 30.01 155.431 29.9C155.687 29.4967 156.127 29.075 156.751 28.635C157.411 28.1583 158.089 27.92 158.786 27.92C159.372 27.92 159.812 28.14 160.106 28.58C160.436 28.9833 160.601 29.4967 160.601 30.12C160.601 31.1833 160.326 32.265 159.776 33.365C159.226 34.4283 158.492 35.455 157.576 36.445C156.659 37.435 155.596 38.3517 154.386 39.195C153.176 40.0017 151.929 40.68 150.646 41.23ZM173.893 30.67C173.893 32.76 171.125 34.19 165.588 34.96C165.552 35.3267 165.515 35.6933 165.478 36.06C165.478 36.4267 165.478 36.8117 165.478 37.215C165.478 38.1683 165.698 38.9017 166.138 39.415C166.578 39.9283 167.275 40.185 168.228 40.185C168.925 40.185 169.64 39.9833 170.373 39.58C171.107 39.1767 171.693 38.6633 172.133 38.04C172.28 37.9667 172.39 38.0033 172.463 38.15C172.537 38.26 172.555 38.3883 172.518 38.535C171.785 39.4883 170.85 40.3133 169.713 41.01C168.613 41.67 167.422 42 166.138 42C164.855 42 163.92 41.6883 163.333 41.065C162.783 40.405 162.508 39.4883 162.508 38.315C162.508 37.1783 162.747 36.005 163.223 34.795C163.7 33.5483 164.305 32.4117 165.038 31.385C165.808 30.3583 166.67 29.5333 167.623 28.91C168.613 28.25 169.603 27.92 170.593 27.92C171.583 27.92 172.372 28.2133 172.958 28.8C173.582 29.35 173.893 29.9733 173.893 30.67ZM169.108 29.35C168.265 29.35 167.532 29.7533 166.908 30.56C166.322 31.33 165.918 32.54 165.698 34.19C167.458 34.0067 168.76 33.6767 169.603 33.2C170.447 32.6867 170.868 32.0633 170.868 31.33C170.868 30.78 170.703 30.3217 170.373 29.955C170.043 29.5517 169.622 29.35 169.108 29.35ZM198.902 38.535C198.975 38.4617 199.067 38.4617 199.177 38.535C199.287 38.6083 199.323 38.7183 199.287 38.865C198.627 39.8183 197.893 40.5883 197.087 41.175C196.28 41.725 195.51 42 194.777 42C193.933 42 193.383 41.4133 193.127 40.24C192.907 39.03 193.035 37.6 193.512 35.95C192.522 37.5267 191.44 38.8833 190.267 40.02C189.13 41.12 187.92 41.78 186.637 42C185.757 42 185.078 41.5967 184.602 40.79C184.125 39.9833 183.887 39.0483 183.887 37.985C183.887 36.775 184.18 35.5833 184.767 34.41C185.353 33.2 186.123 32.1183 187.077 31.165C188.067 30.2117 189.148 29.4417 190.322 28.855C191.532 28.2317 192.742 27.92 193.952 27.92C195.235 27.92 196.243 28.2317 196.977 28.855C197.343 28.5983 197.802 28.3783 198.352 28.195C198.938 28.0117 199.452 27.92 199.892 27.92C200.038 27.92 200.112 28.0117 200.112 28.195C199.268 29.2217 198.535 30.3583 197.912 31.605C197.325 32.815 196.867 33.9883 196.537 35.125C196.207 36.225 196.005 37.215 195.932 38.095C195.858 38.975 195.932 39.58 196.152 39.91C196.335 40.13 196.647 40.2033 197.087 40.13C197.527 40.02 198.132 39.4883 198.902 38.535ZM188.342 39.965C188.782 39.965 189.313 39.69 189.937 39.14C190.597 38.59 191.275 37.8567 191.972 36.94C192.668 36.0233 193.347 34.9967 194.007 33.86C194.703 32.7233 195.308 31.5683 195.822 30.395C195.675 29.9183 195.327 29.5333 194.777 29.24C194.263 28.9467 193.658 28.8 192.962 28.8C192.118 28.8 191.33 29.02 190.597 29.46C189.863 29.8633 189.222 30.45 188.672 31.22C188.158 31.9533 187.737 32.8517 187.407 33.915C187.113 34.9417 186.967 36.0783 186.967 37.325C186.967 38.1317 187.095 38.7733 187.352 39.25C187.645 39.7267 187.975 39.965 188.342 39.965ZM216.971 27.92C217.778 27.92 218.42 28.03 218.896 28.25C219.41 28.47 219.666 28.745 219.666 29.075C219.666 29.4783 219.556 29.9367 219.336 30.45C219.153 30.9633 218.97 31.385 218.786 31.715C218.713 31.7883 218.621 31.8067 218.511 31.77C218.401 31.6967 218.346 31.5867 218.346 31.44C218.456 31.1833 218.511 30.8167 218.511 30.34C218.511 29.8267 218.365 29.405 218.071 29.075C217.815 28.745 217.448 28.58 216.971 28.58C216.348 28.58 215.835 28.7817 215.431 29.185C215.065 29.5517 214.881 30.0833 214.881 30.78C214.881 31.3667 215.028 31.935 215.321 32.485C215.651 32.9983 216 33.53 216.366 34.08C216.77 34.5933 217.136 35.1617 217.466 35.785C217.796 36.3717 217.961 37.05 217.961 37.82C217.961 39.14 217.43 40.1667 216.366 40.9C215.303 41.6333 213.91 42 212.186 42C210.94 42 209.95 41.7983 209.216 41.395C208.52 40.9917 208.171 40.5517 208.171 40.075C208.171 39.9283 208.226 39.7267 208.336 39.47C208.446 39.2133 208.593 38.9383 208.776 38.645C208.96 38.3517 209.161 38.0583 209.381 37.765C209.601 37.4717 209.84 37.2333 210.096 37.05C210.206 36.9767 210.298 36.995 210.371 37.105C210.481 37.215 210.5 37.325 210.426 37.435C210.206 37.655 210.041 37.8933 209.931 38.15C209.821 38.37 209.766 38.6817 209.766 39.085C209.766 39.745 209.986 40.295 210.426 40.735C210.866 41.1383 211.435 41.34 212.131 41.34C213.085 41.34 213.818 41.0833 214.331 40.57C214.881 40.02 215.156 39.36 215.156 38.59C215.156 37.8933 214.991 37.2517 214.661 36.665C214.368 36.0417 214.038 35.455 213.671 34.905C213.305 34.3183 212.956 33.7317 212.626 33.145C212.333 32.5583 212.186 31.935 212.186 31.275C212.186 30.3217 212.59 29.5333 213.396 28.91C214.203 28.25 215.395 27.92 216.971 27.92ZM223.849 42C222.309 42 221.539 41.1567 221.539 39.47C221.539 38.8833 221.594 38.205 221.704 37.435C221.851 36.665 222.053 35.8767 222.309 35.07C222.603 34.2267 222.933 33.3833 223.299 32.54C223.666 31.6967 224.106 30.89 224.619 30.12C224.216 30.3767 223.831 30.6517 223.464 30.945C223.098 31.2017 222.768 31.4767 222.474 31.77C222.364 31.8433 222.254 31.825 222.144 31.715C222.071 31.5683 222.071 31.44 222.144 31.33C222.768 30.67 223.648 29.9917 224.784 29.295C225.958 28.5983 227.076 28.0483 228.139 27.645C228.323 27.645 228.451 27.7 228.524 27.81C228.634 27.8833 228.653 27.9933 228.579 28.14C227.406 29.68 226.453 31.3483 225.719 33.145C225.023 34.9417 224.674 36.6833 224.674 38.37C224.674 39.4333 225.004 39.965 225.664 39.965C226.141 39.965 226.728 39.6533 227.424 39.03C228.121 38.37 228.854 37.5267 229.624 36.5C230.394 35.4367 231.164 34.245 231.934 32.925C232.741 31.605 233.474 30.2667 234.134 28.91C234.244 28.69 234.556 28.47 235.069 28.25C235.619 28.03 236.169 27.92 236.719 27.92C237.269 27.92 237.434 28.0667 237.214 28.36C236.701 29.3133 236.243 30.2117 235.839 31.055C235.473 31.8617 235.161 32.6683 234.904 33.475C234.648 34.2817 234.446 35.1067 234.299 35.95C234.189 36.7567 234.134 37.655 234.134 38.645C234.134 39.8183 234.446 40.405 235.069 40.405C235.693 40.405 236.389 39.855 237.159 38.755C237.269 38.6817 237.379 38.6817 237.489 38.755C237.599 38.8283 237.636 38.9383 237.599 39.085C236.976 40.0383 236.279 40.7717 235.509 41.285C234.776 41.7617 234.098 42 233.474 42C231.934 42 231.164 41.1017 231.164 39.305C231.164 37.435 231.494 35.5833 232.154 33.75C230.761 36.28 229.294 38.2967 227.754 39.8C226.214 41.2667 224.913 42 223.849 42ZM254.761 38.535C254.834 38.4617 254.926 38.4617 255.036 38.535C255.146 38.6083 255.183 38.7183 255.146 38.865C254.486 39.8183 253.753 40.5883 252.946 41.175C252.139 41.725 251.369 42 250.636 42C249.793 42 249.243 41.4133 248.986 40.24C248.766 39.03 248.894 37.6 249.371 35.95C248.381 37.5267 247.299 38.8833 246.126 40.02C244.989 41.12 243.779 41.78 242.496 42C241.616 42 240.938 41.5967 240.461 40.79C239.984 39.9833 239.746 39.0483 239.746 37.985C239.746 36.775 240.039 35.5833 240.626 34.41C241.213 33.2 241.983 32.1183 242.936 31.165C243.926 30.2117 245.008 29.4417 246.181 28.855C247.391 28.2317 248.601 27.92 249.811 27.92C251.094 27.92 252.103 28.2317 252.836 28.855C253.203 28.5983 253.661 28.3783 254.211 28.195C254.798 28.0117 255.311 27.92 255.751 27.92C255.898 27.92 255.971 28.0117 255.971 28.195C255.128 29.2217 254.394 30.3583 253.771 31.605C253.184 32.815 252.726 33.9883 252.396 35.125C252.066 36.225 251.864 37.215 251.791 38.095C251.718 38.975 251.791 39.58 252.011 39.91C252.194 40.13 252.506 40.2033 252.946 40.13C253.386 40.02 253.991 39.4883 254.761 38.535ZM244.201 39.965C244.641 39.965 245.173 39.69 245.796 39.14C246.456 38.59 247.134 37.8567 247.831 36.94C248.528 36.0233 249.206 34.9967 249.866 33.86C250.563 32.7233 251.168 31.5683 251.681 30.395C251.534 29.9183 251.186 29.5333 250.636 29.24C250.123 28.9467 249.518 28.8 248.821 28.8C247.978 28.8 247.189 29.02 246.456 29.46C245.723 29.8633 245.081 30.45 244.531 31.22C244.018 31.9533 243.596 32.8517 243.266 33.915C242.973 34.9417 242.826 36.0783 242.826 37.325C242.826 38.1317 242.954 38.7733 243.211 39.25C243.504 39.7267 243.834 39.965 244.201 39.965ZM265.626 41.505C267.276 35.1983 269.164 29.515 271.291 24.455C273.454 19.395 275.727 15.0867 278.111 11.53C280.494 7.97333 282.896 5.24167 285.316 3.335C287.772 1.39166 290.101 0.419998 292.301 0.419998C293.217 0.419998 293.932 0.639998 294.446 1.08C294.996 1.48333 295.362 1.99666 295.546 2.62C295.766 3.20666 295.802 3.84833 295.656 4.545C295.509 5.24166 295.234 5.865 294.831 6.415C294.721 6.525 294.611 6.56166 294.501 6.525C294.391 6.48833 294.336 6.39666 294.336 6.25C294.519 5.51667 294.317 4.82 293.731 4.16C293.144 3.5 292.209 3.17 290.926 3.17C288.946 3.17 287.057 3.70166 285.261 4.765C283.501 5.82833 281.777 7.60667 280.091 10.1C278.404 12.5567 276.754 15.8383 275.141 19.945C273.527 24.015 271.877 29.0933 270.191 35.18C270.741 34.19 271.364 33.255 272.061 32.375C272.794 31.495 273.582 30.725 274.426 30.065C275.269 29.405 276.167 28.8917 277.121 28.525C278.074 28.1217 279.064 27.92 280.091 27.92C280.531 27.92 280.842 28.03 281.026 28.25C281.246 28.47 281.356 28.7267 281.356 29.02C281.356 29.4967 281.191 30.0283 280.861 30.615C280.091 31.9717 279.467 33.365 278.991 34.795C278.514 36.225 278.276 37.5267 278.276 38.7C278.276 39.2133 278.331 39.635 278.441 39.965C278.551 40.295 278.752 40.46 279.046 40.46C279.412 40.46 279.816 40.2767 280.256 39.91C280.696 39.5067 281.062 39.0667 281.356 38.59C281.466 38.5167 281.576 38.535 281.686 38.645C281.796 38.7183 281.832 38.81 281.796 38.92C281.319 39.7267 280.641 40.4417 279.761 41.065C278.917 41.6883 278.147 42 277.451 42C276.827 42 276.314 41.835 275.911 41.505C275.507 41.1383 275.306 40.5333 275.306 39.69C275.306 39.03 275.361 38.3333 275.471 37.6C275.617 36.83 275.782 36.0783 275.966 35.345C276.186 34.6117 276.424 33.8967 276.681 33.2C276.974 32.4667 277.286 31.8067 277.616 31.22C277.799 30.78 277.891 30.4683 277.891 30.285C277.891 29.955 277.707 29.79 277.341 29.79C276.644 29.79 275.892 30.065 275.086 30.615C274.279 31.1283 273.491 31.88 272.721 32.87C271.951 33.8233 271.199 34.9783 270.466 36.335C269.769 37.6917 269.164 39.195 268.651 40.845C268.577 41.1017 268.284 41.3583 267.771 41.615C267.257 41.8717 266.689 42 266.066 42C265.699 42 265.552 41.835 265.626 41.505ZM290.883 25.555C290.773 25.665 290.644 25.665 290.498 25.555C290.388 25.445 290.296 25.2983 290.223 25.115C290.149 24.895 290.113 24.675 290.113 24.455C290.113 24.1983 290.168 23.9783 290.278 23.795C290.681 23.2817 291.268 22.64 292.038 21.87C292.844 21.0633 293.669 20.385 294.513 19.835C294.586 19.7983 294.678 19.835 294.788 19.945C294.898 20.0183 294.934 20.0917 294.898 20.165C294.128 20.8617 293.394 21.705 292.698 22.695C292.001 23.6483 291.396 24.6017 290.883 25.555ZM284.998 31.77C284.888 31.8433 284.796 31.825 284.723 31.715C284.649 31.5683 284.631 31.44 284.668 31.33C286.024 30.23 287.913 29.0933 290.333 27.92C290.626 27.92 290.773 28.085 290.773 28.415C290.296 29.2583 289.819 30.175 289.343 31.165C288.903 32.155 288.499 33.145 288.133 34.135C287.803 35.0883 287.528 36.0233 287.308 36.94C287.088 37.82 286.978 38.5533 286.978 39.14C286.978 39.8733 287.234 40.24 287.748 40.24C288.151 40.24 288.536 40.075 288.903 39.745C289.306 39.3783 289.764 38.92 290.278 38.37C290.351 38.2967 290.443 38.315 290.553 38.425C290.663 38.4983 290.681 38.6267 290.608 38.81C289.801 39.7633 288.994 40.5333 288.188 41.12C287.418 41.7067 286.666 42 285.933 42C284.649 42 284.008 41.395 284.008 40.185C284.008 39.525 284.099 38.755 284.283 37.875C284.503 36.9583 284.778 36.0417 285.108 35.125C285.474 34.1717 285.859 33.255 286.263 32.375C286.703 31.4583 287.143 30.67 287.583 30.01C287.179 30.23 286.721 30.505 286.208 30.835C285.731 31.165 285.328 31.4767 284.998 31.77ZM299.794 27.92C300.6 27.92 301.242 28.03 301.719 28.25C302.232 28.47 302.489 28.745 302.489 29.075C302.489 29.4783 302.379 29.9367 302.159 30.45C301.975 30.9633 301.792 31.385 301.609 31.715C301.535 31.7883 301.444 31.8067 301.334 31.77C301.224 31.6967 301.169 31.5867 301.169 31.44C301.279 31.1833 301.334 30.8167 301.334 30.34C301.334 29.8267 301.187 29.405 300.894 29.075C300.637 28.745 300.27 28.58 299.794 28.58C299.17 28.58 298.657 28.7817 298.254 29.185C297.887 29.5517 297.704 30.0833 297.704 30.78C297.704 31.3667 297.85 31.935 298.144 32.485C298.474 32.9983 298.822 33.53 299.189 34.08C299.592 34.5933 299.959 35.1617 300.289 35.785C300.619 36.3717 300.784 37.05 300.784 37.82C300.784 39.14 300.252 40.1667 299.189 40.9C298.125 41.6333 296.732 42 295.009 42C293.762 42 292.772 41.7983 292.039 41.395C291.342 40.9917 290.994 40.5517 290.994 40.075C290.994 39.9283 291.049 39.7267 291.159 39.47C291.269 39.2133 291.415 38.9383 291.599 38.645C291.782 38.3517 291.984 38.0583 292.204 37.765C292.424 37.4717 292.662 37.2333 292.919 37.05C293.029 36.9767 293.12 36.995 293.194 37.105C293.304 37.215 293.322 37.325 293.249 37.435C293.029 37.655 292.864 37.8933 292.754 38.15C292.644 38.37 292.589 38.6817 292.589 39.085C292.589 39.745 292.809 40.295 293.249 40.735C293.689 41.1383 294.257 41.34 294.954 41.34C295.907 41.34 296.64 41.0833 297.154 40.57C297.704 40.02 297.979 39.36 297.979 38.59C297.979 37.8933 297.814 37.2517 297.484 36.665C297.19 36.0417 296.86 35.455 296.494 34.905C296.127 34.3183 295.779 33.7317 295.449 33.145C295.155 32.5583 295.009 31.935 295.009 31.275C295.009 30.3217 295.412 29.5333 296.219 28.91C297.025 28.25 298.217 27.92 299.794 27.92ZM314.812 28.195C314.995 28.2683 315.068 28.3783 315.032 28.525C314.995 28.635 314.83 28.7267 314.537 28.8C313.987 28.8 313.345 28.8183 312.612 28.855C311.915 28.8917 311.163 28.9467 310.357 29.02C309.623 30.8167 309.018 32.5767 308.542 34.3C308.065 35.9867 307.827 37.3617 307.827 38.425C307.827 39.6717 308.303 40.295 309.257 40.295C310.21 40.295 311.273 39.47 312.447 37.82C312.557 37.7467 312.648 37.7467 312.722 37.82C312.832 37.8933 312.868 38.0217 312.832 38.205C312.208 39.2317 311.42 40.13 310.467 40.9C309.513 41.6333 308.578 42 307.662 42C306.708 42 305.993 41.78 305.517 41.34C305.077 40.8633 304.857 40.2217 304.857 39.415C304.857 38.3517 305.113 36.885 305.627 35.015C306.14 33.145 306.8 31.2383 307.607 29.295C306.653 29.405 305.773 29.5517 304.967 29.735C304.783 29.6983 304.728 29.6067 304.802 29.46C304.912 29.3133 305.077 29.1667 305.297 29.02C305.553 28.8367 305.847 28.69 306.177 28.58C306.507 28.4333 306.818 28.36 307.112 28.36C307.258 28.36 307.405 28.36 307.552 28.36C307.698 28.36 307.845 28.3417 307.992 28.305C308.468 27.2417 308.963 26.215 309.477 25.225C309.99 24.235 310.503 23.3367 311.017 22.53C311.237 22.2733 311.53 22.0533 311.897 21.87C312.3 21.65 312.685 21.485 313.052 21.375C313.418 21.265 313.712 21.21 313.932 21.21C314.188 21.1733 314.298 21.2283 314.262 21.375C313.638 22.3283 313.015 23.3917 312.392 24.565C311.805 25.7383 311.237 26.9667 310.687 28.25C311.383 28.2133 312.08 28.195 312.777 28.195C313.51 28.195 314.188 28.195 314.812 28.195ZM322.705 27.92C323.989 27.92 324.942 28.305 325.565 29.075C326.189 29.845 326.5 30.7433 326.5 31.77C326.5 33.2 326.207 34.5383 325.62 35.785C325.07 36.995 324.374 38.0767 323.53 39.03C322.724 39.9467 321.844 40.68 320.89 41.23C319.937 41.7433 319.075 42 318.305 42C317.059 42 316.105 41.6333 315.445 40.9C314.822 40.13 314.51 39.1583 314.51 37.985C314.51 36.9217 314.73 35.8033 315.17 34.63C315.647 33.4567 316.252 32.375 316.985 31.385C317.755 30.395 318.635 29.57 319.625 28.91C320.615 28.25 321.642 27.92 322.705 27.92ZM319.68 40.295C320.817 40.295 321.77 39.7083 322.54 38.535C323.347 37.325 323.75 35.675 323.75 33.585C323.75 32.485 323.53 31.5683 323.09 30.835C322.65 30.1017 322.009 29.735 321.165 29.735C319.992 29.735 319.039 30.3033 318.305 31.44C317.572 32.5767 317.205 34.245 317.205 36.445C317.205 37.7283 317.425 38.7 317.865 39.36C318.342 39.9833 318.947 40.295 319.68 40.295ZM325.29 20.935C325.547 20.7883 325.932 20.825 326.445 21.045C326.995 21.2283 327.527 21.43 328.04 21.65C328.15 21.6867 328.205 21.76 328.205 21.87C328.242 21.98 328.224 22.0717 328.15 22.145C327.784 22.4017 327.325 22.6583 326.775 22.915C326.262 23.135 325.712 23.355 325.125 23.575C324.539 23.795 323.952 24.015 323.365 24.235C322.779 24.4183 322.247 24.5833 321.77 24.73C321.624 24.73 321.55 24.6567 321.55 24.51C321.55 24.3633 321.605 24.235 321.715 24.125C322.229 23.795 322.815 23.3367 323.475 22.75C324.172 22.1633 324.777 21.5583 325.29 20.935ZM334.52 29.515C334.52 30.065 334.465 30.6883 334.355 31.385C334.245 32.0817 334.098 32.7967 333.915 33.53C334.648 31.77 335.455 30.395 336.335 29.405C337.215 28.415 338.168 27.92 339.195 27.92C339.745 27.92 340.167 28.0483 340.46 28.305C340.753 28.5617 340.9 28.8917 340.9 29.295C340.9 29.6617 340.753 30.1383 340.46 30.725C340.203 31.3117 339.983 31.715 339.8 31.935C339.727 31.9717 339.653 31.9717 339.58 31.935C339.507 31.8617 339.47 31.7883 339.47 31.715C339.47 31.4583 339.36 31.2383 339.14 31.055C338.957 30.8717 338.663 30.78 338.26 30.78C336.977 30.78 335.803 31.66 334.74 33.42C333.713 35.1433 332.76 37.6367 331.88 40.9C331.843 41.0833 331.715 41.2483 331.495 41.395C331.275 41.505 331.018 41.615 330.725 41.725C330.468 41.7983 330.193 41.8717 329.9 41.945C329.607 41.9817 329.35 42 329.13 42C328.727 42 328.617 41.78 328.8 41.34C329.13 40.57 329.442 39.745 329.735 38.865C330.065 37.9483 330.358 37.0317 330.615 36.115C330.872 35.1983 331.092 34.3183 331.275 33.475C331.458 32.595 331.605 31.7883 331.715 31.055C331.788 30.505 331.807 30.0833 331.77 29.79C331.77 29.4967 331.623 29.35 331.33 29.35C330.963 29.35 330.578 29.515 330.175 29.845C329.808 30.1383 329.46 30.5233 329.13 31C328.983 31.11 328.837 31.1283 328.69 31.055C328.58 30.945 328.562 30.8167 328.635 30.67C328.855 30.3767 329.112 30.0833 329.405 29.79C329.735 29.46 330.083 29.1667 330.45 28.91C330.853 28.6167 331.257 28.3783 331.66 28.195C332.1 28.0117 332.54 27.92 332.98 27.92C333.567 27.92 333.97 28.0667 334.19 28.36C334.41 28.6167 334.52 29.0017 334.52 29.515ZM347.44 25.555C347.33 25.665 347.202 25.665 347.055 25.555C346.945 25.445 346.854 25.2983 346.78 25.115C346.707 24.895 346.67 24.675 346.67 24.455C346.67 24.1983 346.725 23.9783 346.835 23.795C347.239 23.2817 347.825 22.64 348.595 21.87C349.402 21.0633 350.227 20.385 351.07 19.835C351.144 19.7983 351.235 19.835 351.345 19.945C351.455 20.0183 351.492 20.0917 351.455 20.165C350.685 20.8617 349.952 21.705 349.255 22.695C348.559 23.6483 347.954 24.6017 347.44 25.555ZM341.555 31.77C341.445 31.8433 341.354 31.825 341.28 31.715C341.207 31.5683 341.189 31.44 341.225 31.33C342.582 30.23 344.47 29.0933 346.89 27.92C347.184 27.92 347.33 28.085 347.33 28.415C346.854 29.2583 346.377 30.175 345.9 31.165C345.46 32.155 345.057 33.145 344.69 34.135C344.36 35.0883 344.085 36.0233 343.865 36.94C343.645 37.82 343.535 38.5533 343.535 39.14C343.535 39.8733 343.792 40.24 344.305 40.24C344.709 40.24 345.094 40.075 345.46 39.745C345.864 39.3783 346.322 38.92 346.835 38.37C346.909 38.2967 347 38.315 347.11 38.425C347.22 38.4983 347.239 38.6267 347.165 38.81C346.359 39.7633 345.552 40.5333 344.745 41.12C343.975 41.7067 343.224 42 342.49 42C341.207 42 340.565 41.395 340.565 40.185C340.565 39.525 340.657 38.755 340.84 37.875C341.06 36.9583 341.335 36.0417 341.665 35.125C342.032 34.1717 342.417 33.255 342.82 32.375C343.26 31.4583 343.7 30.67 344.14 30.01C343.737 30.23 343.279 30.505 342.765 30.835C342.289 31.165 341.885 31.4767 341.555 31.77ZM364.546 38.535C364.62 38.4617 364.711 38.4617 364.821 38.535C364.931 38.6083 364.968 38.7183 364.931 38.865C364.271 39.8183 363.538 40.5883 362.731 41.175C361.925 41.725 361.155 42 360.421 42C359.578 42 359.028 41.4133 358.771 40.24C358.551 39.03 358.68 37.6 359.156 35.95C358.166 37.5267 357.085 38.8833 355.911 40.02C354.775 41.12 353.565 41.78 352.281 42C351.401 42 350.723 41.5967 350.246 40.79C349.77 39.9833 349.531 39.0483 349.531 37.985C349.531 36.775 349.825 35.5833 350.411 34.41C350.998 33.2 351.768 32.1183 352.721 31.165C353.711 30.2117 354.793 29.4417 355.966 28.855C357.176 28.2317 358.386 27.92 359.596 27.92C360.88 27.92 361.888 28.2317 362.621 28.855C362.988 28.5983 363.446 28.3783 363.996 28.195C364.583 28.0117 365.096 27.92 365.536 27.92C365.683 27.92 365.756 28.0117 365.756 28.195C364.913 29.2217 364.18 30.3583 363.556 31.605C362.97 32.815 362.511 33.9883 362.181 35.125C361.851 36.225 361.65 37.215 361.576 38.095C361.503 38.975 361.576 39.58 361.796 39.91C361.98 40.13 362.291 40.2033 362.731 40.13C363.171 40.02 363.776 39.4883 364.546 38.535ZM353.986 39.965C354.426 39.965 354.958 39.69 355.581 39.14C356.241 38.59 356.92 37.8567 357.616 36.94C358.313 36.0233 358.991 34.9967 359.651 33.86C360.348 32.7233 360.953 31.5683 361.466 30.395C361.32 29.9183 360.971 29.5333 360.421 29.24C359.908 28.9467 359.303 28.8 358.606 28.8C357.763 28.8 356.975 29.02 356.241 29.46C355.508 29.8633 354.866 30.45 354.316 31.22C353.803 31.9533 353.381 32.8517 353.051 33.915C352.758 34.9417 352.611 36.0783 352.611 37.325C352.611 38.1317 352.74 38.7733 352.996 39.25C353.29 39.7267 353.62 39.965 353.986 39.965Z" fill="black"/>
</g>
<defs>
<filter id="filter0_d" x="0.0306702" y="0.419983" width="373.725" height="50.635" filterUnits="userSpaceOnUse" color-interpolation-filters="sRGB">
<feFlood flood-opacity="0" result="BackgroundImageFix"/>
<feColorMatrix in="SourceAlpha" type="matrix" values="0 0 0 0 0 0 0 0 0 0 0 0 0 0 0 0 0 0 127 0"/>
<feOffset dx="4" dy="5"/>
<feGaussianBlur stdDeviation="2"/>
<feColorMatrix type="matrix" values="0 0 0 0 0.729412 0 0 0 0 0.721569 0 0 0 0 0.709804 0 0 0 1 0"/>
<feBlend mode="normal" in2="BackgroundImageFix" result="effect1_dropShadow"/>
<feBlend mode="normal" in="SourceGraphic" in2="effect1_dropShadow" result="shape"/>
</filter>
</defs>
</svg>
