<svg width="417" height="44" viewBox="0 0 417 44" fill="none" xmlns="http://www.w3.org/2000/svg">
<g filter="url(#filter0_d)">
<path d="M9.83199 34.654C9.38399 34.654 8.83799 34.556 8.19399 34.36C7.57799 34.192 7.01799 33.828 6.51399 33.268C6.03799 32.736 5.79999 31.952 5.79999 30.916C5.79999 29.852 6.05199 28.494 6.55599 26.842C7.05999 25.19 7.64799 23.342 8.31999 21.298C8.99199 19.226 9.57999 17.028 10.084 14.704C10.588 12.352 10.84 9.958 10.84 7.522C10.84 6.038 10.672 4.834 10.336 3.91C10.028 2.986 9.34199 2.524 8.27799 2.524C7.32599 2.524 6.54199 2.888 5.92599 3.616C5.33799 4.316 4.90399 5.17 4.62399 6.178C4.37199 7.186 4.24599 8.11 4.24599 8.95C4.24599 9.426 4.28799 9.888 4.37199 10.336C4.48399 10.784 4.65199 11.232 4.87599 11.68C3.50399 11.68 2.50999 11.358 1.89399 10.714C1.27799 10.07 0.969992 9.272 0.969992 8.32C0.969992 7.48 1.17999 6.612 1.59999 5.716C2.01999 4.82 2.59399 4.008 3.32199 3.28C4.07799 2.524 4.94599 1.922 5.92599 1.474C6.93399 0.997999 7.99799 0.759999 9.11799 0.759999C11.022 0.759999 12.464 1.46 13.444 2.86C14.424 4.232 14.914 6.122 14.914 8.53C14.914 10.07 14.732 11.68 14.368 13.36C14.032 15.04 13.612 16.734 13.108 18.442C12.604 20.122 12.086 21.76 11.554 23.356C11.05 24.952 10.616 26.436 10.252 27.808C9.91599 29.152 9.74799 30.328 9.74799 31.336C9.74799 31.784 9.80399 32.134 9.91599 32.386C10.056 32.638 10.336 32.764 10.756 32.764C11.568 32.764 12.478 32.386 13.486 31.63C14.522 30.874 15.586 29.852 16.678 28.564C17.77 27.248 18.834 25.764 19.87 24.112C20.906 22.46 21.844 20.738 22.684 18.946C23.524 17.154 24.182 15.376 24.658 13.612C25.162 11.848 25.414 10.224 25.414 8.74C25.414 7.256 25.148 6.122 24.616 5.338C24.084 4.554 23.412 4.022 22.6 3.742C22.992 2.902 23.468 2.3 24.028 1.936C24.616 1.544 25.134 1.348 25.582 1.348C26.338 1.348 27.052 1.824 27.724 2.776C28.396 3.728 28.732 5.072 28.732 6.808C28.732 8.32 28.438 10.056 27.85 12.016C27.29 13.948 26.506 15.964 25.498 18.064C24.49 20.136 23.342 22.166 22.054 24.154C20.794 26.114 19.45 27.892 18.022 29.488C16.622 31.056 15.222 32.302 13.822 33.226C12.422 34.178 11.092 34.654 9.83199 34.654ZM29.3023 32.344C28.0423 32.344 27.1743 31.924 26.6983 31.084C26.2503 30.272 26.0263 29.376 26.0263 28.396C26.0263 27.5 26.1663 26.59 26.4463 25.666C26.7263 24.714 27.1043 23.832 27.5803 23.02C28.0843 22.208 28.6303 21.564 29.2183 21.088C29.8343 20.584 30.4503 20.332 31.0663 20.332C31.2623 20.332 31.4863 20.374 31.7383 20.458C32.0183 20.514 32.2143 20.612 32.3263 20.752C31.8783 21.312 31.4163 22.04 30.9403 22.936C30.4923 23.804 30.1143 24.714 29.8063 25.666C29.5263 26.618 29.3863 27.486 29.3863 28.27C29.3863 28.83 29.4843 29.292 29.6803 29.656C29.9043 30.02 30.2823 30.202 30.8143 30.202C31.3463 30.202 31.9763 29.908 32.7043 29.32C33.4603 28.704 34.1743 28.004 34.8463 27.22C33.9503 26.408 33.3063 25.526 32.9143 24.574C32.5223 23.594 32.3263 22.418 32.3263 21.046C32.3263 20.458 32.4663 19.786 32.7463 19.03C33.0543 18.274 33.5303 17.616 34.1743 17.056C34.8463 16.496 35.7423 16.216 36.8623 16.216C38.0663 16.216 38.9063 16.552 39.3823 17.224C39.8863 17.896 40.1383 18.694 40.1383 19.618C40.1383 20.654 39.8583 21.816 39.2983 23.104C38.7663 24.392 38.1223 25.61 37.3663 26.758C37.7023 26.926 38.0943 27.01 38.5423 27.01C38.9623 27.01 39.4663 26.912 40.0543 26.716C40.6423 26.52 41.2163 26.198 41.7763 25.75C42.3363 25.274 42.7843 24.644 43.1203 23.86L43.8763 24.406C43.2603 25.834 42.4343 26.884 41.3983 27.556C40.3903 28.2 39.3963 28.522 38.4163 28.522C38.0523 28.522 37.6883 28.494 37.3243 28.438C36.9603 28.354 36.6243 28.256 36.3163 28.144C35.3643 29.264 34.2723 30.244 33.0403 31.084C31.8083 31.924 30.5623 32.344 29.3023 32.344ZM35.9383 25.876C36.6103 24.896 37.1843 23.846 37.6603 22.726C38.1363 21.606 38.3743 20.57 38.3743 19.618C38.3743 18.386 37.9823 17.77 37.1983 17.77C36.6663 17.77 36.1203 18.148 35.5603 18.904C35.0003 19.66 34.7203 20.612 34.7203 21.76C34.7203 22.348 34.8183 23.062 35.0143 23.902C35.2383 24.742 35.5463 25.4 35.9383 25.876ZM46.9032 33.352C45.4472 33.352 44.2432 32.89 43.2912 31.966C42.3672 31.07 41.9052 29.684 41.9052 27.808C41.9052 26.436 42.1712 25.092 42.7032 23.776C43.2352 22.46 43.9492 21.284 44.8452 20.248C45.7412 19.184 46.7352 18.344 47.8272 17.728C48.9472 17.112 50.0812 16.804 51.2292 16.804C52.4052 16.804 53.2452 17.098 53.7492 17.686C54.2812 18.274 54.5472 18.96 54.5472 19.744C54.5472 20.528 54.3512 21.298 53.9592 22.054C53.5952 22.782 53.0912 23.146 52.4472 23.146C51.9152 23.146 51.4812 22.88 51.1452 22.348C51.4252 22.152 51.7192 21.788 52.0272 21.256C52.3352 20.724 52.4892 20.038 52.4892 19.198C52.4892 18.722 52.2232 18.484 51.6912 18.484C50.9912 18.484 50.2492 18.806 49.4652 19.45C48.7092 20.066 47.9952 20.878 47.3232 21.886C46.6792 22.866 46.1472 23.916 45.7272 25.036C45.3352 26.128 45.1392 27.136 45.1392 28.06C45.1392 28.844 45.3352 29.572 45.7272 30.244C46.1472 30.888 46.9452 31.21 48.1212 31.21C49.1852 31.21 50.2912 30.902 51.4392 30.286C52.5872 29.67 53.6652 28.816 54.6732 27.724C55.6812 26.604 56.4932 25.274 57.1092 23.734L57.9492 24.49C57.2772 26.198 56.3392 27.724 55.1352 29.068C53.9592 30.384 52.6432 31.42 51.1872 32.176C49.7592 32.96 48.3312 33.352 46.9032 33.352ZM61.0156 32.848C59.2236 32.848 57.8376 32.358 56.8576 31.378C55.9056 30.426 55.4296 29.222 55.4296 27.766C55.4296 26.534 55.7376 25.232 56.3536 23.86C56.9976 22.46 57.8516 21.158 58.9156 19.954C59.9796 18.722 61.1556 17.728 62.4436 16.972C63.7316 16.216 65.0196 15.838 66.3076 15.838C67.0356 15.838 67.7216 16.034 68.3656 16.426C69.0376 16.79 69.3736 17.532 69.3736 18.652C69.3736 19.716 69.0656 20.71 68.4496 21.634C67.8336 22.558 67.0076 23.384 65.9716 24.112C64.9356 24.84 63.7876 25.442 62.5276 25.918C61.2956 26.366 60.0496 26.66 58.7896 26.8C58.7616 26.912 58.7336 27.038 58.7056 27.178C58.7056 27.29 58.7056 27.486 58.7056 27.766C58.7056 27.906 58.7196 28.158 58.7476 28.522C58.8036 28.858 58.9296 29.222 59.1256 29.614C59.3216 30.006 59.6436 30.342 60.0916 30.622C60.5396 30.902 61.1556 31.042 61.9396 31.042C63.1156 31.042 64.2916 30.72 65.4676 30.076C66.6716 29.404 67.7916 28.522 68.8276 27.43C69.8916 26.338 70.7736 25.12 71.4736 23.776L72.3136 24.448C71.5576 26.128 70.5776 27.598 69.3736 28.858C68.1976 30.118 66.8816 31.098 65.4256 31.798C63.9976 32.498 62.5276 32.848 61.0156 32.848ZM59.2516 25.246C59.9796 25.162 60.7916 24.91 61.6876 24.49C62.5836 24.07 63.4376 23.538 64.2496 22.894C65.0896 22.25 65.7756 21.55 66.3076 20.794C66.8396 20.01 67.1056 19.226 67.1056 18.442C67.1056 18.134 67.0496 17.924 66.9376 17.812C66.8256 17.7 66.6436 17.644 66.3916 17.644C65.7476 17.644 65.0756 17.882 64.3756 18.358C63.6756 18.806 62.9896 19.408 62.3176 20.164C61.6456 20.892 61.0436 21.704 60.5116 22.6C59.9796 23.496 59.5596 24.378 59.2516 25.246ZM71.9776 13.738C71.5296 12.982 71.0536 12.352 70.5496 11.848C70.0736 11.316 69.5416 10.784 68.9536 10.252C68.1976 10.504 67.4696 10.812 66.7696 11.176C66.0976 11.54 65.3976 11.96 64.6696 12.436C64.4736 12.296 64.3336 12.1 64.2496 11.848C64.1656 11.596 64.1236 11.4 64.1236 11.26C64.1236 10.84 64.3056 10.42 64.6696 10C65.0616 9.58 65.5376 9.202 66.0976 8.866C66.6576 8.502 67.2036 8.208 67.7356 7.984C68.2676 7.76 68.6876 7.648 68.9956 7.648C69.3316 7.648 69.7236 7.802 70.1716 8.11C70.6476 8.39 71.0956 8.768 71.5156 9.244C71.9636 9.692 72.3276 10.182 72.6076 10.714C72.8876 11.218 73.0276 11.68 73.0276 12.1C73.0276 12.38 72.9436 12.674 72.7756 12.982C72.6356 13.29 72.3696 13.542 71.9776 13.738ZM86.2402 32.848C84.4482 32.848 83.0622 32.358 82.0822 31.378C81.1302 30.426 80.6542 29.222 80.6542 27.766C80.6542 26.534 80.9622 25.232 81.5782 23.86C82.2222 22.46 83.0762 21.158 84.1402 19.954C85.2042 18.722 86.3802 17.728 87.6682 16.972C88.9562 16.216 90.2442 15.838 91.5322 15.838C92.2602 15.838 92.9462 16.034 93.5902 16.426C94.2622 16.79 94.5982 17.532 94.5982 18.652C94.5982 19.716 94.2902 20.71 93.6742 21.634C93.0582 22.558 92.2322 23.384 91.1962 24.112C90.1602 24.84 89.0122 25.442 87.7522 25.918C86.5202 26.366 85.2742 26.66 84.0142 26.8C83.9862 26.912 83.9582 27.038 83.9302 27.178C83.9302 27.29 83.9302 27.486 83.9302 27.766C83.9302 27.906 83.9442 28.158 83.9722 28.522C84.0282 28.858 84.1542 29.222 84.3502 29.614C84.5462 30.006 84.8682 30.342 85.3162 30.622C85.7642 30.902 86.3802 31.042 87.1642 31.042C88.3402 31.042 89.5162 30.72 90.6922 30.076C91.8962 29.404 93.0162 28.522 94.0522 27.43C95.1162 26.338 95.9982 25.12 96.6982 23.776L97.5382 24.448C96.7822 26.128 95.8022 27.598 94.5982 28.858C93.4222 30.118 92.1062 31.098 90.6502 31.798C89.2222 32.498 87.7522 32.848 86.2402 32.848ZM84.4762 25.246C85.2042 25.162 86.0162 24.91 86.9122 24.49C87.8082 24.07 88.6622 23.538 89.4742 22.894C90.3142 22.25 91.0002 21.55 91.5322 20.794C92.0642 20.01 92.3302 19.226 92.3302 18.442C92.3302 18.134 92.2742 17.924 92.1622 17.812C92.0502 17.7 91.8682 17.644 91.6162 17.644C90.9722 17.644 90.3002 17.882 89.6002 18.358C88.9002 18.806 88.2142 19.408 87.5422 20.164C86.8702 20.892 86.2682 21.704 85.7362 22.6C85.2042 23.496 84.7842 24.378 84.4762 25.246ZM100.597 33.142C99.1966 33.142 98.0626 32.848 97.1946 32.26C96.3546 31.7 95.7526 30.986 95.3886 30.118C95.0246 29.222 94.8426 28.312 94.8426 27.388C94.8426 26.576 94.9546 25.946 95.1786 25.498C95.4026 25.05 95.6826 24.728 96.0186 24.532C96.3546 24.308 96.6626 24.14 96.9426 24.028C97.2506 23.916 97.4746 23.79 97.6146 23.65C98.3146 22.922 99.0286 22.082 99.7566 21.13C100.513 20.15 101.157 19.072 101.689 17.896V17.476C101.689 16.356 101.871 15.572 102.235 15.124C102.627 14.648 103.075 14.41 103.579 14.41C103.915 14.41 104.153 14.494 104.293 14.662C104.461 14.83 104.559 15.026 104.587 15.25C104.587 15.418 104.545 15.614 104.461 15.838C104.405 16.062 104.377 16.37 104.377 16.762C104.377 17.602 104.573 18.568 104.965 19.66C105.385 20.724 105.791 21.858 106.183 23.062C106.603 24.266 106.813 25.498 106.813 26.758C106.813 27.094 106.799 27.402 106.771 27.682C106.743 27.962 106.701 28.228 106.645 28.48C107.513 28.256 108.367 27.78 109.207 27.052C110.047 26.296 110.845 25.19 111.601 23.734L112.105 24.112C111.573 25.708 110.803 26.996 109.795 27.976C108.787 28.928 107.611 29.516 106.267 29.74C105.819 30.888 105.077 31.742 104.041 32.302C103.033 32.862 101.885 33.142 100.597 33.142ZM103.327 28.396C103.383 28.2 103.411 27.976 103.411 27.724C103.439 27.444 103.453 27.234 103.453 27.094C103.425 25.834 103.257 24.588 102.949 23.356C102.641 22.124 102.333 20.864 102.025 19.576C101.521 20.444 100.933 21.382 100.261 22.39C99.5886 23.398 98.9586 24.21 98.3706 24.826C98.8186 25.582 99.4766 26.296 100.345 26.968C101.213 27.64 102.207 28.116 103.327 28.396ZM100.303 31.294C100.863 31.294 101.381 31.154 101.857 30.874C102.333 30.594 102.711 30.188 102.991 29.656C101.843 29.404 100.807 28.956 99.8826 28.312C98.9586 27.668 98.2446 27.01 97.7406 26.338C97.3486 26.422 97.1526 26.8 97.1526 27.472C97.1526 28.396 97.4186 29.264 97.9506 30.076C98.4826 30.888 99.2666 31.294 100.303 31.294ZM115.153 33.352C113.697 33.352 112.493 32.89 111.541 31.966C110.617 31.07 110.155 29.684 110.155 27.808C110.155 26.436 110.421 25.092 110.953 23.776C111.485 22.46 112.199 21.284 113.095 20.248C113.991 19.184 114.985 18.344 116.077 17.728C117.197 17.112 118.331 16.804 119.479 16.804C120.655 16.804 121.495 17.098 121.999 17.686C122.531 18.274 122.797 18.96 122.797 19.744C122.797 20.528 122.601 21.298 122.209 22.054C121.845 22.782 121.341 23.146 120.697 23.146C120.165 23.146 119.731 22.88 119.395 22.348C119.675 22.152 119.969 21.788 120.277 21.256C120.585 20.724 120.739 20.038 120.739 19.198C120.739 18.722 120.473 18.484 119.941 18.484C119.241 18.484 118.499 18.806 117.715 19.45C116.959 20.066 116.245 20.878 115.573 21.886C114.929 22.866 114.397 23.916 113.977 25.036C113.585 26.128 113.389 27.136 113.389 28.06C113.389 28.844 113.585 29.572 113.977 30.244C114.397 30.888 115.195 31.21 116.371 31.21C117.435 31.21 118.541 30.902 119.689 30.286C120.837 29.67 121.915 28.816 122.923 27.724C123.931 26.604 124.743 25.274 125.359 23.734L126.199 24.49C125.527 26.198 124.589 27.724 123.385 29.068C122.209 30.384 120.893 31.42 119.437 32.176C118.009 32.96 116.581 33.352 115.153 33.352ZM132.164 32.092C131.128 32.092 130.288 31.812 129.644 31.252C129 30.72 128.678 29.992 128.678 29.068C128.678 28.284 128.874 27.444 129.266 26.548C129.658 25.652 130.05 24.77 130.442 23.902C130.862 23.034 131.072 22.264 131.072 21.592C131.072 20.948 130.862 20.416 130.442 19.996C130.022 19.548 129.532 19.184 128.972 18.904C128.356 20.444 127.656 21.942 126.872 23.398C126.116 24.826 125.5 25.946 125.024 26.758L124.394 25.54C124.786 24.812 125.304 23.776 125.948 22.432C126.592 21.088 127.208 19.59 127.796 17.938C127.516 17.658 127.376 17.28 127.376 16.804C127.376 16.076 127.6 15.39 128.048 14.746C128.496 14.102 128.93 13.78 129.35 13.78C129.686 13.78 129.924 13.976 130.064 14.368C130.232 14.732 130.316 14.984 130.316 15.124C130.316 15.264 130.246 15.516 130.106 15.88C129.994 16.244 129.91 16.51 129.854 16.678C129.882 16.986 130.12 17.294 130.568 17.602C131.044 17.882 131.576 18.218 132.164 18.61C132.752 19.002 133.27 19.492 133.718 20.08C134.166 20.668 134.39 21.41 134.39 22.306C134.39 23.118 134.208 23.944 133.844 24.784C133.48 25.624 133.116 26.408 132.752 27.136C132.388 27.864 132.206 28.494 132.206 29.026C132.206 29.418 132.304 29.684 132.5 29.824C132.724 29.936 132.976 29.992 133.256 29.992C133.928 29.992 134.628 29.796 135.356 29.404C136.084 28.984 136.798 28.452 137.498 27.808C138.198 27.164 138.814 26.492 139.346 25.792C139.878 25.064 140.284 24.406 140.564 23.818L141.572 24.574C141.04 25.778 140.27 26.968 139.262 28.144C138.254 29.292 137.134 30.244 135.902 31C134.67 31.728 133.424 32.092 132.164 32.092ZM144.523 32.848C142.731 32.848 141.345 32.358 140.365 31.378C139.413 30.426 138.937 29.222 138.937 27.766C138.937 26.534 139.245 25.232 139.861 23.86C140.505 22.46 141.359 21.158 142.423 19.954C143.487 18.722 144.663 17.728 145.951 16.972C147.239 16.216 148.527 15.838 149.815 15.838C150.543 15.838 151.229 16.034 151.873 16.426C152.545 16.79 152.881 17.532 152.881 18.652C152.881 19.716 152.573 20.71 151.957 21.634C151.341 22.558 150.515 23.384 149.479 24.112C148.443 24.84 147.295 25.442 146.035 25.918C144.803 26.366 143.557 26.66 142.297 26.8C142.269 26.912 142.241 27.038 142.213 27.178C142.213 27.29 142.213 27.486 142.213 27.766C142.213 27.906 142.227 28.158 142.255 28.522C142.311 28.858 142.437 29.222 142.633 29.614C142.829 30.006 143.151 30.342 143.599 30.622C144.047 30.902 144.663 31.042 145.447 31.042C146.623 31.042 147.799 30.72 148.975 30.076C150.179 29.404 151.299 28.522 152.335 27.43C153.399 26.338 154.281 25.12 154.981 23.776L155.821 24.448C155.065 26.128 154.085 27.598 152.881 28.858C151.705 30.118 150.389 31.098 148.933 31.798C147.505 32.498 146.035 32.848 144.523 32.848ZM142.759 25.246C143.487 25.162 144.299 24.91 145.195 24.49C146.091 24.07 146.945 23.538 147.757 22.894C148.597 22.25 149.283 21.55 149.815 20.794C150.347 20.01 150.613 19.226 150.613 18.442C150.613 18.134 150.557 17.924 150.445 17.812C150.333 17.7 150.151 17.644 149.899 17.644C149.255 17.644 148.583 17.882 147.883 18.358C147.183 18.806 146.497 19.408 145.825 20.164C145.153 20.892 144.551 21.704 144.019 22.6C143.487 23.496 143.067 24.378 142.759 25.246ZM157.074 32.638C156.038 32.638 155.31 32.162 154.89 31.21C154.498 30.286 154.302 29.082 154.302 27.598C154.302 27.29 154.316 26.744 154.344 25.96C154.372 25.148 154.414 24.028 154.47 22.6C154.498 21.76 154.582 21.186 154.722 20.878C154.89 20.57 155.338 20.416 156.066 20.416C156.738 20.416 157.13 20.556 157.242 20.836C157.382 21.088 157.452 21.62 157.452 22.432C157.452 23.272 157.41 24.168 157.326 25.12C157.27 26.072 157.242 26.996 157.242 27.892C157.242 28.76 157.284 29.404 157.368 29.824C157.452 30.216 157.662 30.412 157.998 30.412C158.502 30.412 159.048 30.146 159.636 29.614C160.224 29.054 160.812 28.354 161.4 27.514C162.016 26.646 162.59 25.722 163.122 24.742C163.682 23.734 164.172 22.768 164.592 21.844C164.648 19.94 164.872 18.666 165.264 18.022C165.656 17.378 166.16 17.056 166.776 17.056C167.476 17.056 167.952 17.28 168.204 17.728C168.456 18.176 168.582 18.568 168.582 18.904C168.582 19.324 168.47 19.702 168.246 20.038C168.022 20.374 167.798 20.836 167.574 21.424C167.35 22.012 167.238 22.908 167.238 24.112C167.238 24.504 167.266 24.938 167.322 25.414C167.406 25.862 167.574 26.254 167.826 26.59C168.106 26.898 168.512 27.052 169.044 27.052C169.604 27.052 170.136 26.828 170.64 26.38C171.172 25.904 171.732 25.092 172.32 23.944L172.782 24.322C172.138 25.862 171.41 26.94 170.598 27.556C169.814 28.172 169.058 28.48 168.33 28.48C167.406 28.48 166.65 28.116 166.062 27.388C165.502 26.632 165.068 25.694 164.76 24.574C164.088 25.834 163.318 27.08 162.45 28.312C161.61 29.544 160.728 30.566 159.804 31.378C158.88 32.218 157.97 32.638 157.074 32.638ZM176.064 32.848C174.272 32.848 172.886 32.358 171.906 31.378C170.954 30.426 170.478 29.222 170.478 27.766C170.478 26.534 170.786 25.232 171.402 23.86C172.046 22.46 172.9 21.158 173.964 19.954C175.028 18.722 176.204 17.728 177.492 16.972C178.78 16.216 180.068 15.838 181.356 15.838C182.084 15.838 182.77 16.034 183.414 16.426C184.086 16.79 184.422 17.532 184.422 18.652C184.422 19.716 184.114 20.71 183.498 21.634C182.882 22.558 182.056 23.384 181.02 24.112C179.984 24.84 178.836 25.442 177.576 25.918C176.344 26.366 175.098 26.66 173.838 26.8C173.81 26.912 173.782 27.038 173.754 27.178C173.754 27.29 173.754 27.486 173.754 27.766C173.754 27.906 173.768 28.158 173.796 28.522C173.852 28.858 173.978 29.222 174.174 29.614C174.37 30.006 174.692 30.342 175.14 30.622C175.588 30.902 176.204 31.042 176.988 31.042C178.164 31.042 179.34 30.72 180.516 30.076C181.72 29.404 182.84 28.522 183.876 27.43C184.94 26.338 185.822 25.12 186.522 23.776L187.362 24.448C186.606 26.128 185.626 27.598 184.422 28.858C183.246 30.118 181.93 31.098 180.474 31.798C179.046 32.498 177.576 32.848 176.064 32.848ZM174.3 25.246C175.028 25.162 175.84 24.91 176.736 24.49C177.632 24.07 178.486 23.538 179.298 22.894C180.138 22.25 180.824 21.55 181.356 20.794C181.888 20.01 182.154 19.226 182.154 18.442C182.154 18.134 182.098 17.924 181.986 17.812C181.874 17.7 181.692 17.644 181.44 17.644C180.796 17.644 180.124 17.882 179.424 18.358C178.724 18.806 178.038 19.408 177.366 20.164C176.694 20.892 176.092 21.704 175.56 22.6C175.028 23.496 174.608 24.378 174.3 25.246ZM198.769 32.974C197.845 32.974 197.047 32.666 196.375 32.05C195.675 31.434 195.325 30.51 195.325 29.278C195.325 28.298 195.549 27.234 195.997 26.086C196.445 24.938 197.061 23.804 197.845 22.684C198.629 21.564 199.525 20.556 200.533 19.66C201.541 18.736 202.619 17.994 203.767 17.434C204.915 16.874 206.063 16.594 207.211 16.594C208.415 16.594 209.437 16.902 210.277 17.518C211.117 18.134 211.537 18.946 211.537 19.954C211.537 20.71 211.271 21.256 210.739 21.592C210.207 21.928 209.577 22.026 208.849 21.886C208.905 21.634 208.947 21.382 208.975 21.13C209.031 20.878 209.059 20.612 209.059 20.332C209.059 19.772 208.947 19.268 208.723 18.82C208.499 18.372 208.023 18.148 207.295 18.148C206.511 18.148 205.713 18.414 204.901 18.946C204.089 19.478 203.305 20.178 202.549 21.046C201.821 21.886 201.163 22.824 200.575 23.86C199.987 24.868 199.525 25.862 199.189 26.842C198.853 27.822 198.685 28.704 198.685 29.488C198.685 30.384 199.007 30.832 199.651 30.832C200.295 30.832 201.009 30.524 201.793 29.908C202.577 29.264 203.361 28.466 204.145 27.514C204.957 26.562 205.727 25.596 206.455 24.616C207.183 23.608 207.813 22.754 208.345 22.054C208.429 21.914 208.541 21.844 208.681 21.844C208.793 21.872 209.003 21.942 209.311 22.054C209.647 22.138 209.955 22.278 210.235 22.474C210.515 22.67 210.655 22.922 210.655 23.23C210.655 23.594 210.459 24.098 210.067 24.742C209.675 25.358 209.269 26.03 208.849 26.758C208.457 27.486 208.261 28.158 208.261 28.774C208.261 29.138 208.359 29.488 208.555 29.824C208.751 30.132 209.073 30.286 209.521 30.286C210.193 30.286 211.131 29.796 212.335 28.816C213.567 27.808 214.813 26.114 216.073 23.734L216.871 24.532C215.835 26.828 214.547 28.69 213.007 30.118C211.467 31.546 209.913 32.26 208.345 32.26C207.197 32.26 206.343 31.896 205.783 31.168C205.223 30.44 204.915 29.656 204.859 28.816V28.606C203.739 29.95 202.703 31.014 201.751 31.798C200.827 32.582 199.833 32.974 198.769 32.974ZM230.903 33.142C229.503 33.142 228.369 32.848 227.501 32.26C226.661 31.7 226.059 30.986 225.695 30.118C225.331 29.222 225.149 28.312 225.149 27.388C225.149 26.576 225.261 25.946 225.485 25.498C225.709 25.05 225.989 24.728 226.325 24.532C226.661 24.308 226.969 24.14 227.249 24.028C227.557 23.916 227.781 23.79 227.921 23.65C228.621 22.922 229.335 22.082 230.063 21.13C230.819 20.15 231.463 19.072 231.995 17.896V17.476C231.995 16.356 232.177 15.572 232.541 15.124C232.933 14.648 233.381 14.41 233.885 14.41C234.221 14.41 234.459 14.494 234.599 14.662C234.767 14.83 234.865 15.026 234.893 15.25C234.893 15.418 234.851 15.614 234.767 15.838C234.711 16.062 234.683 16.37 234.683 16.762C234.683 17.602 234.879 18.568 235.271 19.66C235.691 20.724 236.097 21.858 236.489 23.062C236.909 24.266 237.119 25.498 237.119 26.758C237.119 27.094 237.105 27.402 237.077 27.682C237.049 27.962 237.007 28.228 236.951 28.48C237.819 28.256 238.673 27.78 239.513 27.052C240.353 26.296 241.151 25.19 241.907 23.734L242.411 24.112C241.879 25.708 241.109 26.996 240.101 27.976C239.093 28.928 237.917 29.516 236.573 29.74C236.125 30.888 235.383 31.742 234.347 32.302C233.339 32.862 232.191 33.142 230.903 33.142ZM233.633 28.396C233.689 28.2 233.717 27.976 233.717 27.724C233.745 27.444 233.759 27.234 233.759 27.094C233.731 25.834 233.563 24.588 233.255 23.356C232.947 22.124 232.639 20.864 232.331 19.576C231.827 20.444 231.239 21.382 230.567 22.39C229.895 23.398 229.265 24.21 228.677 24.826C229.125 25.582 229.783 26.296 230.651 26.968C231.519 27.64 232.513 28.116 233.633 28.396ZM230.609 31.294C231.169 31.294 231.687 31.154 232.163 30.874C232.639 30.594 233.017 30.188 233.297 29.656C232.149 29.404 231.113 28.956 230.189 28.312C229.265 27.668 228.551 27.01 228.047 26.338C227.655 26.422 227.459 26.8 227.459 27.472C227.459 28.396 227.725 29.264 228.257 30.076C228.789 30.888 229.573 31.294 230.609 31.294ZM243.906 32.26C242.954 32.26 242.17 31.826 241.554 30.958C240.966 30.062 240.672 29.04 240.672 27.892C240.672 27.108 240.798 26.184 241.05 25.12C241.302 24.056 241.624 23.02 242.016 22.012C242.436 21.004 242.856 20.164 243.276 19.492C243.724 18.82 244.13 18.484 244.494 18.484C244.69 18.484 244.984 18.596 245.376 18.82C245.796 19.016 246.16 19.268 246.468 19.576C246.16 20.024 245.782 20.71 245.334 21.634C244.914 22.558 244.536 23.552 244.2 24.616C243.864 25.68 243.696 26.646 243.696 27.514C243.696 27.626 243.71 27.892 243.738 28.312C243.794 28.732 243.906 29.124 244.074 29.488C244.242 29.852 244.536 30.034 244.956 30.034C245.432 30.034 245.936 29.782 246.468 29.278C247.028 28.746 247.588 28.074 248.148 27.262C248.736 26.422 249.296 25.526 249.828 24.574C250.388 23.622 250.878 22.698 251.298 21.802C251.746 20.906 252.11 20.15 252.39 19.534C252.642 19.562 252.964 19.632 253.356 19.744C253.776 19.856 254.14 20.01 254.448 20.206C254.756 20.374 254.91 20.626 254.91 20.962C254.91 21.046 254.77 21.396 254.49 22.012C254.238 22.6 253.93 23.314 253.566 24.154C253.23 24.994 252.922 25.862 252.642 26.758C252.39 27.626 252.264 28.396 252.264 29.068C252.264 29.46 252.334 29.81 252.474 30.118C252.642 30.398 252.95 30.538 253.398 30.538C253.986 30.538 254.686 30.272 255.498 29.74C256.31 29.208 257.15 28.438 258.018 27.43C258.886 26.422 259.656 25.218 260.328 23.818L260.958 24.322C260.342 25.834 259.544 27.192 258.564 28.396C257.584 29.6 256.534 30.538 255.414 31.21C254.294 31.91 253.202 32.26 252.138 32.26C251.326 32.26 250.71 32.064 250.29 31.672C249.898 31.308 249.632 30.832 249.492 30.244C249.352 29.628 249.268 29.012 249.24 28.396V27.556C248.764 28.312 248.246 29.054 247.686 29.782C247.126 30.482 246.524 31.07 245.88 31.546C245.264 32.022 244.606 32.26 243.906 32.26ZM261.605 32.974C260.681 32.974 259.883 32.666 259.211 32.05C258.511 31.434 258.161 30.51 258.161 29.278C258.161 28.298 258.385 27.234 258.833 26.086C259.281 24.938 259.897 23.804 260.681 22.684C261.465 21.564 262.361 20.556 263.369 19.66C264.377 18.736 265.455 17.994 266.603 17.434C267.751 16.874 268.899 16.594 270.047 16.594C271.251 16.594 272.273 16.902 273.113 17.518C273.953 18.134 274.373 18.946 274.373 19.954C274.373 20.71 274.107 21.256 273.575 21.592C273.043 21.928 272.413 22.026 271.685 21.886C271.741 21.634 271.783 21.382 271.811 21.13C271.867 20.878 271.895 20.612 271.895 20.332C271.895 19.772 271.783 19.268 271.559 18.82C271.335 18.372 270.859 18.148 270.131 18.148C269.347 18.148 268.549 18.414 267.737 18.946C266.925 19.478 266.141 20.178 265.385 21.046C264.657 21.886 263.999 22.824 263.411 23.86C262.823 24.868 262.361 25.862 262.025 26.842C261.689 27.822 261.521 28.704 261.521 29.488C261.521 30.384 261.843 30.832 262.487 30.832C263.131 30.832 263.845 30.524 264.629 29.908C265.413 29.264 266.197 28.466 266.981 27.514C267.793 26.562 268.563 25.596 269.291 24.616C270.019 23.608 270.649 22.754 271.181 22.054C271.265 21.914 271.377 21.844 271.517 21.844C271.629 21.872 271.839 21.942 272.147 22.054C272.483 22.138 272.791 22.278 273.071 22.474C273.351 22.67 273.491 22.922 273.491 23.23C273.491 23.594 273.295 24.098 272.903 24.742C272.511 25.358 272.105 26.03 271.685 26.758C271.293 27.486 271.097 28.158 271.097 28.774C271.097 29.138 271.195 29.488 271.391 29.824C271.587 30.132 271.909 30.286 272.357 30.286C273.029 30.286 273.967 29.796 275.171 28.816C276.403 27.808 277.649 26.114 278.909 23.734L279.707 24.532C278.671 26.828 277.383 28.69 275.843 30.118C274.303 31.546 272.749 32.26 271.181 32.26C270.033 32.26 269.179 31.896 268.619 31.168C268.059 30.44 267.751 29.656 267.695 28.816V28.606C266.575 29.95 265.539 31.014 264.587 31.798C263.663 32.582 262.669 32.974 261.605 32.974ZM290.757 32.596C290.141 32.596 289.693 32.12 289.413 31.168C289.161 30.216 289.035 29.11 289.035 27.85C289.035 26.562 289.245 25.008 289.665 23.188C290.113 21.368 290.701 19.45 291.429 17.434C292.185 15.418 293.011 13.444 293.907 11.512C294.831 9.58 295.769 7.83 296.721 6.262C297.701 4.666 298.625 3.392 299.493 2.44C300.389 1.488 301.173 1.012 301.845 1.012C302.433 1.012 302.881 1.334 303.189 1.978C303.497 2.622 303.651 3.294 303.651 3.994C303.651 4.75 303.469 5.688 303.105 6.808C302.769 7.9 302.293 9.076 301.677 10.336C301.061 11.596 300.333 12.842 299.493 14.074C298.681 15.278 297.785 16.384 296.805 17.392C295.853 18.4 294.859 19.212 293.823 19.828C293.291 21.284 292.913 22.586 292.689 23.734C292.493 24.854 292.395 25.932 292.395 26.968C292.395 27.108 292.395 27.262 292.395 27.43C292.423 27.57 292.437 27.71 292.437 27.85C292.549 27.682 292.731 27.248 292.983 26.548C293.235 25.848 293.571 25.036 293.991 24.112C294.439 23.16 294.985 22.236 295.629 21.34C296.273 20.416 297.029 19.66 297.897 19.072C298.765 18.456 299.759 18.148 300.879 18.148C301.831 18.148 302.573 18.372 303.105 18.82C303.637 19.24 304.015 19.772 304.239 20.416C304.463 21.032 304.575 21.662 304.575 22.306C304.575 23.202 304.421 24.042 304.113 24.826C303.833 25.61 303.539 26.352 303.231 27.052C302.951 27.724 302.811 28.368 302.811 28.984C302.811 29.488 302.923 29.838 303.147 30.034C303.371 30.23 303.637 30.328 303.945 30.328C304.561 30.328 305.275 30.02 306.087 29.404C306.927 28.788 307.753 27.976 308.565 26.968C309.405 25.932 310.119 24.798 310.707 23.566L311.379 24.28C310.735 25.68 309.979 26.968 309.111 28.144C308.243 29.32 307.291 30.258 306.255 30.958C305.219 31.658 304.099 32.008 302.895 32.008C301.831 32.008 301.019 31.728 300.459 31.168C299.899 30.608 299.619 29.908 299.619 29.068C299.619 28.48 299.717 27.836 299.913 27.136C300.137 26.408 300.347 25.68 300.543 24.952C300.739 24.224 300.837 23.566 300.837 22.978C300.837 22.306 300.683 21.844 300.375 21.592C300.095 21.34 299.745 21.214 299.325 21.214C298.625 21.214 297.995 21.494 297.435 22.054C296.875 22.586 296.371 23.286 295.923 24.154C295.475 25.022 295.055 25.946 294.663 26.926C294.271 27.878 293.879 28.788 293.487 29.656C293.095 30.524 292.675 31.224 292.227 31.756C291.807 32.316 291.317 32.596 290.757 32.596ZM294.705 17.14C295.601 16.328 296.455 15.348 297.267 14.2C298.107 13.024 298.849 11.834 299.493 10.63C300.137 9.426 300.641 8.334 301.005 7.354C301.397 6.346 301.607 5.59 301.635 5.086V4.96C301.467 4.96 301.103 5.31 300.543 6.01C300.011 6.682 299.381 7.606 298.653 8.782C297.953 9.93 297.239 11.232 296.511 12.688C295.811 14.144 295.209 15.628 294.705 17.14ZM317.895 13.318C317.363 13.318 316.873 13.192 316.425 12.94C316.005 12.66 315.795 12.24 315.795 11.68C315.795 11.008 316.159 10.434 316.887 9.958C317.615 9.482 318.371 9.244 319.155 9.244C319.659 9.244 320.079 9.356 320.415 9.58C320.779 9.804 320.961 10.21 320.961 10.798C320.961 11.386 320.639 11.96 319.995 12.52C319.351 13.052 318.651 13.318 317.895 13.318ZM312.939 32.26C311.707 32.26 310.783 31.896 310.167 31.168C309.551 30.44 309.243 29.558 309.243 28.522C309.243 27.878 309.355 27.066 309.579 26.086C309.803 25.106 310.111 24.084 310.503 23.02C310.923 21.928 311.399 20.906 311.931 19.954C312.463 19.002 313.037 18.232 313.653 17.644C314.269 17.028 314.885 16.72 315.501 16.72C315.837 16.72 316.131 16.832 316.383 17.056C316.635 17.252 316.761 17.546 316.761 17.938C316.761 18.302 316.537 18.848 316.089 19.576C315.669 20.304 315.165 21.144 314.577 22.096C314.017 23.048 313.513 24.042 313.065 25.078C312.645 26.086 312.435 27.052 312.435 27.976C312.435 28.872 312.589 29.474 312.897 29.782C313.233 30.062 313.709 30.202 314.325 30.202C315.277 30.202 316.313 29.726 317.433 28.774C318.553 27.822 319.715 26.156 320.919 23.776L321.549 24.448C320.569 26.912 319.323 28.83 317.811 30.202C316.299 31.574 314.675 32.26 312.939 32.26ZM324.747 33.142C323.347 33.142 322.213 32.848 321.345 32.26C320.505 31.7 319.903 30.986 319.539 30.118C319.175 29.222 318.993 28.312 318.993 27.388C318.993 26.576 319.105 25.946 319.329 25.498C319.553 25.05 319.833 24.728 320.169 24.532C320.505 24.308 320.813 24.14 321.093 24.028C321.401 23.916 321.625 23.79 321.765 23.65C322.465 22.922 323.179 22.082 323.907 21.13C324.663 20.15 325.307 19.072 325.839 17.896V17.476C325.839 16.356 326.021 15.572 326.385 15.124C326.777 14.648 327.225 14.41 327.729 14.41C328.065 14.41 328.303 14.494 328.443 14.662C328.611 14.83 328.709 15.026 328.737 15.25C328.737 15.418 328.695 15.614 328.611 15.838C328.555 16.062 328.527 16.37 328.527 16.762C328.527 17.602 328.723 18.568 329.115 19.66C329.535 20.724 329.941 21.858 330.333 23.062C330.753 24.266 330.963 25.498 330.963 26.758C330.963 27.094 330.949 27.402 330.921 27.682C330.893 27.962 330.851 28.228 330.795 28.48C331.663 28.256 332.517 27.78 333.357 27.052C334.197 26.296 334.995 25.19 335.751 23.734L336.255 24.112C335.723 25.708 334.953 26.996 333.945 27.976C332.937 28.928 331.761 29.516 330.417 29.74C329.969 30.888 329.227 31.742 328.191 32.302C327.183 32.862 326.035 33.142 324.747 33.142ZM327.477 28.396C327.533 28.2 327.561 27.976 327.561 27.724C327.589 27.444 327.603 27.234 327.603 27.094C327.575 25.834 327.407 24.588 327.099 23.356C326.791 22.124 326.483 20.864 326.175 19.576C325.671 20.444 325.083 21.382 324.411 22.39C323.739 23.398 323.109 24.21 322.521 24.826C322.969 25.582 323.627 26.296 324.495 26.968C325.363 27.64 326.357 28.116 327.477 28.396ZM324.453 31.294C325.013 31.294 325.531 31.154 326.007 30.874C326.483 30.594 326.861 30.188 327.141 29.656C325.993 29.404 324.957 28.956 324.033 28.312C323.109 27.668 322.395 27.01 321.891 26.338C321.499 26.422 321.303 26.8 321.303 27.472C321.303 28.396 321.569 29.264 322.101 30.076C322.633 30.888 323.417 31.294 324.453 31.294ZM338.38 32.932C337.148 32.932 336.154 32.568 335.398 31.84C334.642 31.112 334.264 30.006 334.264 28.522C334.264 27.374 334.474 25.946 334.894 24.238C335.342 22.53 335.902 20.766 336.574 18.946C336.378 18.89 336.14 18.848 335.86 18.82C335.608 18.764 335.356 18.68 335.104 18.568V17.266C335.552 17.322 335.916 17.364 336.196 17.392C336.504 17.42 336.812 17.448 337.12 17.476C337.708 15.992 338.338 14.564 339.01 13.192C339.71 11.792 340.396 10.546 341.068 9.454C341.768 8.362 342.426 7.508 343.042 6.892C343.658 6.248 344.204 5.926 344.68 5.926C344.96 5.926 345.226 6.038 345.478 6.262C345.73 6.458 345.856 6.752 345.856 7.144C345.856 7.704 345.562 8.502 344.974 9.538C344.414 10.574 343.714 11.792 342.874 13.192C342.034 14.564 341.222 16.034 340.438 17.602H341.74C342.972 17.602 344.078 17.588 345.058 17.56C346.066 17.504 347.088 17.42 348.124 17.308V18.694C346.584 18.834 345.17 18.946 343.882 19.03C342.594 19.114 341.362 19.17 340.186 19.198H339.682C339.094 20.57 338.576 21.984 338.128 23.44C337.708 24.868 337.498 26.268 337.498 27.64C337.498 28.788 337.68 29.6 338.044 30.076C338.408 30.552 338.982 30.79 339.766 30.79C341.166 30.79 342.594 30.16 344.05 28.9C345.534 27.612 346.822 25.876 347.914 23.692L348.502 24.112C347.774 25.764 346.864 27.262 345.772 28.606C344.708 29.95 343.546 31 342.286 31.756C341.026 32.54 339.724 32.932 338.38 32.932ZM349.429 32.344C348.169 32.344 347.301 31.924 346.825 31.084C346.377 30.272 346.153 29.376 346.153 28.396C346.153 27.5 346.293 26.59 346.573 25.666C346.853 24.714 347.231 23.832 347.707 23.02C348.211 22.208 348.757 21.564 349.345 21.088C349.961 20.584 350.577 20.332 351.193 20.332C351.389 20.332 351.613 20.374 351.865 20.458C352.145 20.514 352.341 20.612 352.453 20.752C352.005 21.312 351.543 22.04 351.067 22.936C350.619 23.804 350.241 24.714 349.933 25.666C349.653 26.618 349.513 27.486 349.513 28.27C349.513 28.83 349.611 29.292 349.807 29.656C350.031 30.02 350.409 30.202 350.941 30.202C351.473 30.202 352.103 29.908 352.831 29.32C353.587 28.704 354.301 28.004 354.973 27.22C354.077 26.408 353.433 25.526 353.041 24.574C352.649 23.594 352.453 22.418 352.453 21.046C352.453 20.458 352.593 19.786 352.873 19.03C353.181 18.274 353.657 17.616 354.301 17.056C354.973 16.496 355.869 16.216 356.989 16.216C358.193 16.216 359.033 16.552 359.509 17.224C360.013 17.896 360.265 18.694 360.265 19.618C360.265 20.654 359.985 21.816 359.425 23.104C358.893 24.392 358.249 25.61 357.493 26.758C357.829 26.926 358.221 27.01 358.669 27.01C359.089 27.01 359.593 26.912 360.181 26.716C360.769 26.52 361.343 26.198 361.903 25.75C362.463 25.274 362.911 24.644 363.247 23.86L364.003 24.406C363.387 25.834 362.561 26.884 361.525 27.556C360.517 28.2 359.523 28.522 358.543 28.522C358.179 28.522 357.815 28.494 357.451 28.438C357.087 28.354 356.751 28.256 356.443 28.144C355.491 29.264 354.399 30.244 353.167 31.084C351.935 31.924 350.689 32.344 349.429 32.344ZM356.065 25.876C356.737 24.896 357.311 23.846 357.787 22.726C358.263 21.606 358.501 20.57 358.501 19.618C358.501 18.386 358.109 17.77 357.325 17.77C356.793 17.77 356.247 18.148 355.687 18.904C355.127 19.66 354.847 20.612 354.847 21.76C354.847 22.348 354.945 23.062 355.141 23.902C355.365 24.742 355.673 25.4 356.065 25.876ZM358.543 13.192C358.179 13.052 357.913 12.828 357.745 12.52C357.605 12.184 357.535 11.946 357.535 11.806C357.535 11.582 357.675 11.218 357.955 10.714C358.235 10.182 358.599 9.636 359.047 9.076C359.495 8.488 359.957 7.998 360.433 7.606C360.937 7.186 361.413 6.976 361.861 6.976C362.169 6.976 362.435 7.088 362.659 7.312C362.911 7.508 363.065 7.886 363.121 8.446C362.141 9.398 361.273 10.238 360.517 10.966C359.789 11.666 359.131 12.408 358.543 13.192ZM370.054 32.092C369.018 32.092 368.178 31.812 367.534 31.252C366.89 30.72 366.568 29.992 366.568 29.068C366.568 28.284 366.764 27.444 367.156 26.548C367.548 25.652 367.94 24.77 368.332 23.902C368.752 23.034 368.962 22.264 368.962 21.592C368.962 20.948 368.752 20.416 368.332 19.996C367.912 19.548 367.422 19.184 366.862 18.904C366.246 20.444 365.546 21.942 364.762 23.398C364.006 24.826 363.39 25.946 362.914 26.758L362.284 25.54C362.676 24.812 363.194 23.776 363.838 22.432C364.482 21.088 365.098 19.59 365.686 17.938C365.406 17.658 365.266 17.28 365.266 16.804C365.266 16.076 365.49 15.39 365.938 14.746C366.386 14.102 366.82 13.78 367.24 13.78C367.576 13.78 367.814 13.976 367.954 14.368C368.122 14.732 368.206 14.984 368.206 15.124C368.206 15.264 368.136 15.516 367.996 15.88C367.884 16.244 367.8 16.51 367.744 16.678C367.772 16.986 368.01 17.294 368.458 17.602C368.934 17.882 369.466 18.218 370.054 18.61C370.642 19.002 371.16 19.492 371.608 20.08C372.056 20.668 372.28 21.41 372.28 22.306C372.28 23.118 372.098 23.944 371.734 24.784C371.37 25.624 371.006 26.408 370.642 27.136C370.278 27.864 370.096 28.494 370.096 29.026C370.096 29.418 370.194 29.684 370.39 29.824C370.614 29.936 370.866 29.992 371.146 29.992C371.818 29.992 372.518 29.796 373.246 29.404C373.974 28.984 374.688 28.452 375.388 27.808C376.088 27.164 376.704 26.492 377.236 25.792C377.768 25.064 378.174 24.406 378.454 23.818L379.462 24.574C378.93 25.778 378.16 26.968 377.152 28.144C376.144 29.292 375.024 30.244 373.792 31C372.56 31.728 371.314 32.092 370.054 32.092ZM385.858 13.318C385.326 13.318 384.836 13.192 384.388 12.94C383.968 12.66 383.758 12.24 383.758 11.68C383.758 11.008 384.122 10.434 384.85 9.958C385.578 9.482 386.334 9.244 387.118 9.244C387.622 9.244 388.042 9.356 388.378 9.58C388.742 9.804 388.924 10.21 388.924 10.798C388.924 11.386 388.602 11.96 387.958 12.52C387.314 13.052 386.614 13.318 385.858 13.318ZM380.902 32.26C379.67 32.26 378.746 31.896 378.13 31.168C377.514 30.44 377.206 29.558 377.206 28.522C377.206 27.878 377.318 27.066 377.542 26.086C377.766 25.106 378.074 24.084 378.466 23.02C378.886 21.928 379.362 20.906 379.894 19.954C380.426 19.002 381 18.232 381.616 17.644C382.232 17.028 382.848 16.72 383.464 16.72C383.8 16.72 384.094 16.832 384.346 17.056C384.598 17.252 384.724 17.546 384.724 17.938C384.724 18.302 384.5 18.848 384.052 19.576C383.632 20.304 383.128 21.144 382.54 22.096C381.98 23.048 381.476 24.042 381.028 25.078C380.608 26.086 380.398 27.052 380.398 27.976C380.398 28.872 380.552 29.474 380.86 29.782C381.196 30.062 381.672 30.202 382.288 30.202C383.24 30.202 384.276 29.726 385.396 28.774C386.516 27.822 387.678 26.156 388.882 23.776L389.512 24.448C388.532 26.912 387.286 28.83 385.774 30.202C384.262 31.574 382.638 32.26 380.902 32.26ZM390.148 32.974C389.224 32.974 388.426 32.666 387.754 32.05C387.054 31.434 386.704 30.51 386.704 29.278C386.704 28.298 386.928 27.234 387.376 26.086C387.824 24.938 388.44 23.804 389.224 22.684C390.008 21.564 390.904 20.556 391.912 19.66C392.92 18.736 393.998 17.994 395.146 17.434C396.294 16.874 397.442 16.594 398.59 16.594C399.794 16.594 400.816 16.902 401.656 17.518C402.496 18.134 402.916 18.946 402.916 19.954C402.916 20.71 402.65 21.256 402.118 21.592C401.586 21.928 400.956 22.026 400.228 21.886C400.284 21.634 400.326 21.382 400.354 21.13C400.41 20.878 400.438 20.612 400.438 20.332C400.438 19.772 400.326 19.268 400.102 18.82C399.878 18.372 399.402 18.148 398.674 18.148C397.89 18.148 397.092 18.414 396.28 18.946C395.468 19.478 394.684 20.178 393.928 21.046C393.2 21.886 392.542 22.824 391.954 23.86C391.366 24.868 390.904 25.862 390.568 26.842C390.232 27.822 390.064 28.704 390.064 29.488C390.064 30.384 390.386 30.832 391.03 30.832C391.674 30.832 392.388 30.524 393.172 29.908C393.956 29.264 394.74 28.466 395.524 27.514C396.336 26.562 397.106 25.596 397.834 24.616C398.562 23.608 399.192 22.754 399.724 22.054C399.808 21.914 399.92 21.844 400.06 21.844C400.172 21.872 400.382 21.942 400.69 22.054C401.026 22.138 401.334 22.278 401.614 22.474C401.894 22.67 402.034 22.922 402.034 23.23C402.034 23.594 401.838 24.098 401.446 24.742C401.054 25.358 400.648 26.03 400.228 26.758C399.836 27.486 399.64 28.158 399.64 28.774C399.64 29.138 399.738 29.488 399.934 29.824C400.13 30.132 400.452 30.286 400.9 30.286C401.572 30.286 402.51 29.796 403.714 28.816C404.946 27.808 406.192 26.114 407.452 23.734L408.25 24.532C407.214 26.828 405.926 28.69 404.386 30.118C402.846 31.546 401.292 32.26 399.724 32.26C398.576 32.26 397.722 31.896 397.162 31.168C396.602 30.44 396.294 29.656 396.238 28.816V28.606C395.118 29.95 394.082 31.014 393.13 31.798C392.206 32.582 391.212 32.974 390.148 32.974Z" fill="black"/>
</g>
<defs>
<filter id="filter0_d" x="0.969986" y="0.76001" width="415.28" height="42.894" filterUnits="userSpaceOnUse" color-interpolation-filters="sRGB">
<feFlood flood-opacity="0" result="BackgroundImageFix"/>
<feColorMatrix in="SourceAlpha" type="matrix" values="0 0 0 0 0 0 0 0 0 0 0 0 0 0 0 0 0 0 127 0"/>
<feOffset dx="4" dy="5"/>
<feGaussianBlur stdDeviation="2"/>
<feColorMatrix type="matrix" values="0 0 0 0 0.729412 0 0 0 0 0.721569 0 0 0 0 0.709804 0 0 0 1 0"/>
<feBlend mode="normal" in2="BackgroundImageFix" result="effect1_dropShadow"/>
<feBlend mode="normal" in="SourceGraphic" in2="effect1_dropShadow" result="shape"/>
</filter>
</defs>
</svg>
